<svg width="100" height="100" fill="none" xmlns="http://www.w3.org/2000/svg"><path d="M32.588 48.492c1.81.224 3.192.84 4.144 1.848s1.428 2.268 1.428 3.78c0 1.139-.29 2.175-.868 3.108-.579.933-1.456 1.68-2.632 2.24-1.158.541-2.576.812-4.256.812-1.4 0-2.754-.196-4.06-.588-1.288-.41-2.39-.97-3.304-1.68l1.568-2.828c.71.597 1.568 1.073 2.576 1.428a10.11 10.11 0 0 0 3.164.504c1.288 0 2.296-.261 3.024-.784.746-.541 1.12-1.27 1.12-2.184 0-.915-.355-1.624-1.064-2.128-.69-.523-1.755-.784-3.192-.784h-1.792v-2.492l4.452-5.292h-8.904V40.4h13.356v2.436l-4.76 5.656zM48.717 60.28c-1.568 0-2.968-.392-4.2-1.176-1.232-.803-2.203-1.96-2.912-3.472-.71-1.53-1.064-3.341-1.064-5.432 0-2.09.354-3.892 1.064-5.404.709-1.53 1.68-2.688 2.912-3.472 1.232-.803 2.632-1.204 4.2-1.204s2.968.401 4.2 1.204c1.25.784 2.23 1.941 2.94 3.472.709 1.512 1.064 3.313 1.064 5.404 0 2.09-.355 3.901-1.064 5.432-.71 1.512-1.69 2.67-2.94 3.472-1.232.784-2.632 1.176-4.2 1.176zm0-3.164c1.4 0 2.5-.579 3.304-1.736.82-1.157 1.232-2.884 1.232-5.18s-.411-4.023-1.232-5.18c-.803-1.157-1.904-1.736-3.304-1.736-1.382 0-2.483.579-3.304 1.736-.803 1.157-1.204 2.884-1.204 5.18s.4 4.023 1.204 5.18c.82 1.157 1.922 1.736 3.304 1.736zm18.84 3.164c-1.569 0-2.969-.392-4.2-1.176-1.233-.803-2.203-1.96-2.913-3.472-.709-1.53-1.064-3.341-1.064-5.432 0-2.09.355-3.892 1.064-5.404.71-1.53 1.68-2.688 2.912-3.472 1.232-.803 2.632-1.204 4.2-1.204s2.968.401 4.2 1.204c1.251.784 2.231 1.941 2.94 3.472.71 1.512 1.064 3.313 1.064 5.404 0 2.09-.354 3.901-1.064 5.432-.709 1.512-1.689 2.67-2.94 3.472-1.232.784-2.632 1.176-4.2 1.176zm0-3.164c1.4 0 2.5-.579 3.303-1.736.822-1.157 1.232-2.884 1.232-5.18s-.41-4.023-1.232-5.18c-.802-1.157-1.904-1.736-3.304-1.736-1.38 0-2.482.579-3.304 1.736-.802 1.157-1.204 2.884-1.204 5.18s.402 4.023 1.204 5.18c.822 1.157 1.923 1.736 3.304 1.736z" fill="#24FFFE"/><circle cx="50" cy="50" r="47.5" stroke="#000" stroke-opacity=".3" stroke-width="5" stroke-linejoin="round" stroke-dasharray="6 6"/><path fill-rule="evenodd" clip-rule="evenodd" d="M95 50c0 24.853-20.147 45-45 45S5 74.853 5 50c0-.167 0-.334.003-.5h-5C0 49.666 0 49.833 0 50c0 27.614 22.386 50 50 50s50-22.386 50-50S77.614 0 50 0c-.167 0-.334 0-.5.002v5L50 5c24.853 0 45 20.147 45 45z" fill="#24FFFE"/><circle cx="49.5" cy="2.5" r="2.5" fill="#24FFFE"/><circle cx="2.5" cy="49.5" r="2.5" fill="#24FFFE"/></svg>