<svg width="101" height="100" fill="none" xmlns="http://www.w3.org/2000/svg"><path d="M40.29 0a2.153 2.153 0 0 0-2.119 2.182v1.384c0 1.679-.486 2.824-1.341 3.863-.855 1.04-2.15 1.937-3.712 2.674-3.127 1.475-7.184 2.234-10.17 2.981l-.03.008c-.008.002-.014.007-.021.009a2.148 2.148 0 0 0-.299.105 1.806 1.806 0 0 0-.054.021c-2.75.77-5.486 1.9-7.715 3.738-2.332 1.921-4.086 4.708-4.322 8.16l-1.37 19.987c-.001.016-.001.031 0 .047l-1.12 24.153a2.577 2.577 0 0 0-.003.017 17.947 17.947 0 0 0 1 6.643c.028.079.06.156.097.231l11.007 22.535a2.153 2.153 0 0 0 2.316 1.232 2.151 2.151 0 0 0 2.224-2.178c0-7.405 6.063-16.333 6.063-16.333.038-.053.073-.108.105-.164 2.451-4.209 3.425-7.487 3.494-10.456.07-2.97-.703-5.42-1.337-8.136-3.103-13.286-4.104-15.61-5.575-19.567a2.152 2.152 0 0 0-3.787-.52 2.153 2.153 0 0 0-.25 2.021c.55 1.479 1.03 2.79 1.544 4.335a2.157 2.157 0 0 0-.19.517l-4.389 18.348c-.016.07-.028.142-.037.214a7.534 7.534 0 0 0 .252 3.174c.03.101.068.2.113.295l4.726 10.048c.02.044.043.088.067.13-1.335 2.253-3.091 5.676-4.166 9.632l-8.215-16.817a13.635 13.635 0 0 1-.757-5.016l-.004.013 1.118-24.129 1.37-19.962c.154-2.234 1.124-3.783 2.763-5.133 1.638-1.35 3.978-2.372 6.462-3.036 2.715-.676 7.06-1.432 10.923-3.254 1.936-.913 3.786-2.11 5.2-3.83 1.414-1.719 2.325-3.989 2.325-6.6V2.182A2.154 2.154 0 0 0 40.29 0zm21.497 0a2.152 2.152 0 0 0-2.123 2.182v1.384c0 2.611.91 4.881 2.325 6.6 1.413 1.72 3.263 2.917 5.2 3.83 3.862 1.822 8.208 2.578 10.923 3.254 2.484.664 4.824 1.686 6.462 3.036s2.61 2.899 2.762 5.133l1.37 19.967 1.12 24.128-.005-.017a13.64 13.64 0 0 1-.757 5.016L80.85 91.33c-1.075-3.956-2.832-7.379-4.166-9.632.023-.042.046-.086.067-.13l4.725-10.048c.045-.096.083-.194.114-.295a7.533 7.533 0 0 0 .252-3.174 2.137 2.137 0 0 0-.038-.214l-4.389-18.348a2.157 2.157 0 0 0-.19-.517c.514-1.545.994-2.856 1.544-4.335a2.153 2.153 0 1 0-4.036-1.5c-1.472 3.955-2.472 6.28-5.575 19.566-.635 2.716-1.407 5.166-1.337 8.136.07 2.97 1.043 6.247 3.494 10.456.032.056.067.11.105.164 0 0 6.062 8.928 6.062 16.333a2.153 2.153 0 0 0 2.498 2.153 2.153 2.153 0 0 0 2.043-1.202l11.007-22.54c.037-.075.069-.152.097-.231a17.948 17.948 0 0 0 1-6.643l-.004-.017-1.118-24.15v-.045l-1.371-19.992c-.236-3.452-1.99-6.239-4.322-8.16-2.233-1.84-4.973-2.972-7.728-3.742a2.144 2.144 0 0 0-.349-.126l-.012-.005a1.62 1.62 0 0 0-.03-.008c-2.986-.747-7.043-1.506-10.17-2.98-1.563-.738-2.857-1.635-3.712-2.675-.855-1.039-1.341-2.184-1.341-3.863V2.182A2.153 2.153 0 0 0 61.787 0zM27.265 57.385c.456 1.821.918 3.69 1.526 6.294.67 2.87 1.274 4.92 1.224 7.059-.041 1.75-.53 3.75-1.905 6.491l-3.443-7.324a3.239 3.239 0 0 1-.097-1.253l2.695-11.267zm47.61 0 2.695 11.267c.051.423.015.85-.097 1.253L74.03 77.23c-1.375-2.742-1.864-4.74-1.905-6.491-.05-2.14.553-4.19 1.224-7.06.608-2.603 1.07-4.472 1.526-6.293z" fill="#24FFFE"/></svg>