<svg width="50" height="51" viewBox="0 0 50 51" fill="none" xmlns="http://www.w3.org/2000/svg">
<path fill-rule="evenodd" clip-rule="evenodd" d="M14.1705 13.4193V6.29599C14.138 5.84062 14.4047 4.92987 15.7318 4.92987C17.0589 4.92987 17.3256 5.90567 17.2931 6.39357V12.9314C18.0412 14.7529 20.6888 18.3178 25.2946 18.0056C27.8707 19.2546 30.2061 20.4126 31.0518 20.8354C31.4747 21.0956 32.4765 21.9478 33.101 23.2749C33.7255 24.602 34.9225 27.0155 35.4429 28.0563C35.7032 28.7069 35.9699 30.086 34.955 30.3983C33.6865 30.7886 32.9059 30.0079 32.5155 29.2273C32.2033 28.6028 30.7591 25.6494 30.076 24.2507C30.0435 24.1206 29.7443 23.7433 28.8075 23.2749C27.8707 22.8065 26.1403 21.8437 25.3922 21.4209C25.4247 22.8195 25.7825 26.2218 26.9535 28.6418C28.1244 31.0618 32.3854 39.6033 34.3696 43.5716C34.7599 44.3197 35.2673 45.933 34.1744 46.4014C32.8083 46.9869 31.8325 45.7183 31.247 44.3522C30.6615 42.9861 28.5148 38.595 28.222 38.0095C27.9293 37.424 25.5874 34.399 24.8067 33.5208C24.1822 32.8182 23.4406 31.862 23.1479 31.4716L18.0737 36.8385V45.1328C18.1062 45.6207 17.8785 46.5965 16.7076 46.5965C15.2439 46.5965 14.9511 45.9135 14.9511 45.1328V35.9603C15.0487 35.7652 15.3415 35.2187 15.7318 34.5942C16.1221 33.9697 18.8218 30.3657 20.1229 28.6418C19.6024 27.1781 18.5811 23.3725 18.6592 19.8596C17.0979 17.9861 15.4065 15.7613 14.756 14.883C14.5608 14.7204 14.1705 14.2 14.1705 13.4193ZM23.9277 17.0302C25.7601 17.0302 27.2455 15.5449 27.2455 13.7125C27.2455 11.8802 25.7601 10.3948 23.9277 10.3948C22.0954 10.3948 20.61 11.8802 20.61 13.7125C20.61 15.5449 22.0954 17.0302 23.9277 17.0302Z" fill="#24FFFE"/>
</svg>
