<svg width="101" height="100" fill="none" xmlns="http://www.w3.org/2000/svg"><g clip-path="url(#a)"><path d="M28.787 9.64c-4.673 0-8.474 3.802-8.474 8.475s3.801 8.475 8.474 8.475 8.475-3.802 8.475-8.475S33.46 9.64 28.787 9.64zm0 3.39a5.09 5.09 0 0 1 5.085 5.085 5.09 5.09 0 0 1-5.085 5.085 5.091 5.091 0 0 1-5.085-5.085 5.091 5.091 0 0 1 5.085-5.085zm11.891 13.55-16.95 6.78-10.169 6.779-4.753-2.377a6.052 6.052 0 0 0-2.718-.652C2.895 37.11 0 39.677 0 43.204c0 2.28 1.273 4.37 3.3 5.413l9.187 4.724a3.369 3.369 0 0 0 2.142 0l10.795-6.422-.027 6.79-10.325 20.686a6.778 6.778 0 0 0 0 6.058l6.498 13a5.558 5.558 0 0 0 4.976 3.072c.591 0 1.193-.093 1.784-.292l.123-.043a5.42 5.42 0 0 0 3.317-7.157l-4.651-11.606 6.753-11.854.026 11.854s4.796 7.988 7.8 12.997a5.73 5.73 0 0 0 4.922 2.787c.615 0 1.239-.098 1.85-.301l.126-.043a5.606 5.606 0 0 0 3.43-7.402l-4.568-11.428-1.722-16.939.027-18.654h8.474s1.765 4.347 3.496 6.942a5.903 5.903 0 0 0 4.926 2.632 5.957 5.957 0 0 0 3.31-1.007l.126-.086a5.919 5.919 0 0 0 1.526-8.375l-6.303-8.786a6.788 6.788 0 0 0-5.753-3.184H40.678zm.652 3.386h14.235v.003c1.176 0 2.253.594 2.877 1.593.038.06.076.12.119.178l6.303 8.786c.403.563.557 1.245.433 1.927a2.51 2.51 0 0 1-1.082 1.652l-.13.086c-.43.286-.921.437-1.426.437-.848 0-1.634-.42-2.102-1.122-1.258-1.887-2.722-5.218-3.178-6.34a3.388 3.388 0 0 0-3.138-2.112h-8.475a3.39 3.39 0 0 0-3.39 3.387l-.026 18.654c0 .115.004.232.016.347l1.722 16.94c.032.315.108.623.225.916l4.571 11.428c.23.573.21 1.198-.05 1.758-.259.56-.724.972-1.31 1.168l-.123.043c-.254.085-.518.13-.78.13a2.328 2.328 0 0 1-2.017-1.14l-7.32-12.198-.022-10.921a3.392 3.392 0 0 0-6.336-1.672L24.172 75.75a3.394 3.394 0 0 0-.201 2.94l4.654 11.606a2.02 2.02 0 0 1-.043 1.608c-.137.297-.476.83-1.202 1.073l-.126.04a2.22 2.22 0 0 1-.708.119 2.163 2.163 0 0 1-1.943-1.199L18.105 78.94a3.405 3.405 0 0 1 0-3.03L28.43 55.222c.232-.466.354-.977.357-1.5l.027-6.79a3.386 3.386 0 0 0-3.39-3.402c-.6 0-1.201.16-1.735.476L13.516 50.06 4.85 45.604a2.693 2.693 0 0 1-1.46-2.4c0-1.67 1.4-2.704 2.698-2.704.41 0 .817.1 1.205.294l4.75 2.377a3.399 3.399 0 0 0 3.397-.212l9.874-6.584 16.016-6.409zm38.328 19.21a5.09 5.09 0 0 0-5.082 5.088v19.872c-.559-.059-1.125-.089-1.695-.089-7.476 0-13.559 5.322-13.559 11.865 0 6.542 6.083 11.864 13.56 11.864 7.635 0 13.559-7.288 13.559-13.56V69.9l6.988 2.202.04.013.043.01A5.088 5.088 0 0 0 100 67.238v-8.34a5.106 5.106 0 0 0-3.681-4.885L81.114 49.39a5.205 5.205 0 0 0-1.456-.215zm0 3.39c.154 0 .312.022.47.066l15.254 4.638c.727.21 1.228.873 1.228 1.629v8.339a1.695 1.695 0 0 1-2.162 1.628l-9.232-2.91a1.692 1.692 0 0 0-2.162 1.629v16.632c0 4.678-4.56 10.17-10.17 10.17s-10.169-3.797-10.169-8.475c0-4.678 4.56-8.475 10.17-8.475 1.056 0 2.065.132 3.015.377.136.036.275.053.408.053.893 0 1.661-.752 1.661-1.698V54.264a1.694 1.694 0 0 1 1.689-1.698z" fill="#24FFFE"/><path d="M72.488 3.006c-.95-.078-1.763.581-1.86 1.51l-.352 3.373a1.698 1.698 0 0 0 1.689 1.87c.857 0 1.591-.646 1.685-1.519L74 4.867a1.698 1.698 0 0 0-1.512-1.86zM63.5 3.61a1.693 1.693 0 0 0-1.927 2.062l.782 3.3a1.696 1.696 0 0 0 2.039 1.258 1.693 1.693 0 0 0 1.258-2.039l-.782-3.3a1.7 1.7 0 0 0-1.37-1.281zm17.65 1.87a1.697 1.697 0 0 0-1.605.967l-1.45 3.065a1.694 1.694 0 1 0 3.063 1.45l1.45-3.065a1.689 1.689 0 0 0-.805-2.255c-.21-.1-.432-.153-.652-.162zM54.55 7.177a1.695 1.695 0 0 0-1.135 2.589l1.833 2.85a1.695 1.695 0 1 0 2.85-1.834l-1.834-2.85a1.694 1.694 0 0 0-1.714-.755zm33.99 3.51a1.703 1.703 0 0 0-1.198.503l-2.38 2.413a1.692 1.692 0 0 0 1.208 2.883c.438 0 .871-.17 1.205-.503l2.38-2.41a1.7 1.7 0 0 0-.013-2.4 1.693 1.693 0 0 0-1.201-.487zm5.215 7.408c-.22.012-.442.07-.653.172l-3.045 1.486a1.696 1.696 0 0 0 1.49 3.046l3.045-1.486a1.696 1.696 0 0 0-.837-3.218zm2.466 8.753-3.367.387a1.695 1.695 0 1 0 .39 3.367l3.364-.388a1.698 1.698 0 0 0 1.49-1.88 1.69 1.69 0 0 0-1.877-1.486z" fill="#000" fill-opacity=".3"/></g><defs><clipPath id="a"><path fill="#fff" transform="translate(.332)" d="M0 0h100v100H0z"/></clipPath></defs></svg>