<svg width="30" height="31" viewBox="0 0 30 31" fill="none" xmlns="http://www.w3.org/2000/svg">
<path d="M15 0.00415039C11.0218 0.00415039 7.20644 1.5845 4.3934 4.39755C1.58035 7.21059 0 11.0259 0 15.0042C0 18.9824 1.58035 22.7977 4.3934 25.6108C7.20644 28.4238 11.0218 30.0042 15 30.0042C18.9782 30.0042 22.7936 28.4238 25.6066 25.6108C28.4196 22.7977 30 18.9824 30 15.0042C30 11.0259 28.4196 7.21059 25.6066 4.39755C22.7936 1.5845 18.9782 0.00415039 15 0.00415039Z" fill="#039BE5"/>
<path d="M17.0304 18.9799H20.9123L21.5218 15.0365H17.0297V12.8813C17.0297 11.2431 17.5649 9.79047 19.0973 9.79047H21.5597V6.34916C21.127 6.29074 20.212 6.16284 18.4831 6.16284C14.8728 6.16284 12.7562 8.06942 12.7562 12.4131V15.0365H9.04492V18.9799H12.7562V29.8186C13.4912 29.9292 14.2357 30.0042 14.9999 30.0042C15.6907 30.0042 16.3649 29.941 17.0304 29.851V18.9799Z" fill="white"/>
</svg>
