<svg width="237" height="234" fill="none" xmlns="http://www.w3.org/2000/svg"><path d="M162.42 15.23c-1.38-2.07-4.83-3.45-10.81-4.6l-5.98-1.15c-7.36-1.61-21.85-2.76-31.05-2.76-2.99 0-7.59.23-10.12.46L87.9 9.48c-.69.23-.69 0-.69-.69.23-.69.23-.69 0-.69-.23.23-.46 0-.46-.23s-.23-.46-.46-.23c-.23 0-.46 0-.46-.46 0-.69-.23-.92-1.15-.69-.46 0-.92-.23-.92-.46h.23c.46.23.23 0 0-.23s-.46-.23-.46 0c-.23.23-.23.23-.69 0-.23-.23-.46-.46-.69-.46 0 .23-.23-.23-.23-.92 0-.92 0-1.15-1.15-1.84-1.15-.46-1.15-.46-1.61 0-.23.46-.69.46-.92.46-.46-.23-.69 0-.69.23.23.23.46.23.69.23.46 0 .46.92-.46 3.22-.46.92-.69 1.61-.69 1.84 0 .46-.23.46-.46.46 0 0-.23.23-.23.69.23 1.15-.46 1.61-2.07 1.84-1.61.23-1.61.23-1.15-.23.23-.46.23-.46 0-.46-.23.23-.23.23 0-.23 0-.23.23-.46.23-.23.46.23.92-1.61.46-2.07 0-.23 0-.23.23-.23.23.23.23 0 .46-.46 0-.23 0-.46-.23-.46 0 .23-.23 0 0-.23 0-.23.23-.46.46-.46s.23-.23.23-.46c-.23-.23 0-.46 0-.46.23-.23.46-.69.46-1.15 0-.46 0-.92.23-.92.23.23.46-.69.46-1.84 0-.69-.23-.92-.46-.92-1.38 0-2.53 1.84-4.6 8.05-.69 1.84-1.38 3.45-1.61 3.68-.23 0-6.67 1.38-14.03 2.76L30.4 20.29l-13.34 2.99c-1.15 0-2.53.23-3.22.46-.92 0-.92.23-.92 1.38.23.92.23 1.38.46 1.38s.46.23.69.69c.46.92.46.92-.46 2.07-.69.46-1.15 1.15-.92 1.15.23.23.23.46.23.69 0 .46.69 1.84 1.61 3.45 1.84 3.68 2.3 3.91 6.21 3.68 4.37-.46 4.6-.46 6.21-.92 2.07-.46 2.53-.69 3.91-.69.69 0 1.15 0 1.15-.23s.23-.23.23-.23h1.38c.69-.23 1.38-.46 1.61-.46.23 0 .46 0 .69-.23h1.15c.23 0 .69-.23.69-.23s0-.23.23-.23c1.38 0 2.07-.23 2.07-.46s.23-.23.46 0c0 0 1.15-.23 2.53-.46 1.15-.23 2.53-.46 2.99-.46.46 0 .92-.23.92-.23 0-.23.23-.23.46-.23s.69-.23 1.15-.23c.69-.23 1.38-.23 1.61-.23.46 0 .69-.23.69-.23 0-.23.46-.23.69 0 .46.23.69.23.69 0 0 0 .92-.46 1.84-.69 1.15-.23 2.3-.46 2.76-.46.46 0 1.15-.23 1.38-.23.46 0 .69 0 .69-.23s.23-.23.69-.23c.23 0 .69 0 1.15-.23.46 0 1.38-.23 2.07-.23l1.15-.23-.46 1.38-1.84 5.29c-.69 2.07-1.38 3.91-1.38 3.91.23 0 0 .23-.23.69-.23.46-.46.69-.23.69 0 0 0 .23-.23.46-.23.46-.23.69-.23.92.23.23.23.23 0 .23-.46-.23-.46.46-.46 1.61 0 .46 0 .46-.23.46s-.23 0 0 .46c0 .46 0 .69-.46.69-.23 0-.23 0 .23.23.23.23.23.23-.23.23-.23 0-.46.23-.46.69 0 .23.23.46.46.46v-.46c0-.23.23-.23.46-.46.46 0 .69 0 .46.46 0 .46-.23.69-.46.69-.46 0-.46.69 0 1.15.46.23.46.23-.23.23-.46-.23-.46-.23-.23.23 0 .23 0 .46-.23.46v.69c0 .46 0 .69-.46.69-.23.23-.46.46-.46.69 0 .23 0 .46-.23.46s-.23 0 0 .46c.23.23.23.46 0 .46s-.23.23-.23.69c.23.46 0 .46-.23.23-.46-.46-.46-.46-.46 0 .23.23.23.46 0 .69-.23.23-.23.46-.23.69 0 0-.23.69-.23 1.15-.23.69-.23.92-.46.46-.23-.23-.23-.23-.23 0s0 .46.23.69c.23.23.23.46-.23.46-.23.23-.23.46-.23.46 0 .23 0 .23-.23.23-.46 0-.46.23-.46.23 0 .23-.23.69-.23 1.15-.23.46-.23.69 0 .46.23 0 .23 0 .23.23s0 .46-.23.46c-.69-.23-.92.46-.46.92.23.23.23.46 0 .23s-1.15.69-1.15 1.15c0 .23-.23.69-.23 1.15v.92c.23 0 .23.23.23.69-.23.69-.23.69-.46 0-.23-.46-.23-.46-.69.46-.23.46-.46 1.38-.46 1.84 0 .92 0 .92-.23.69-.46-.46-.46-.46-.23 0 0 .23-.23.92-.46 1.61-.23.69-.46 1.15-.46 1.38h-.23c-.23 0-.23.23-.23.46s-.23.92-.46 1.61c-.46.69-.69 1.38-.46 1.61 0 .23-.23.92-.69 1.38-.23.46-.69.92-.69 1.15 0 0-.23.46-.23.92-.23.46-.23.92-.23 1.15 0 .23-.23.46-.46.69-.23.23-.92 2.53-6.67 19.32l-3.91 11.96-1.38.46c-.46.23-2.07.69-3.45.92-1.38.46-2.3.69-2.3.69 0 .23-.46.23-1.38.23-.69 0-1.61.23-1.84.69-.23.23-.46.23-.46.23.23-.46 0-.46-.69-.23-.46.23-.92.23-1.15.46-.46.46-4.14 1.15-5.75 1.38-.23 0-.69 0-.69.23s-.23.23-.46.23c-.46-.23-.69-.23-.46 0 0 .23 0 .23-.23.23s-.23 0-.23-.23-.23-.23-.46.23c-.46.46-.69.46-.92 0-.23-.46-.23-.46-.23 0s0 .46-.23 0c-.46-.23-.46-.23-.46.23 0 .23 0 .46-.23.23-.23-.46-.69-.46-1.15 0-.46.69-1.15.46-.92-.23-.23 0-.46.23-.23.46.23.46-2.99 1.15-3.45.69-.23-.23-.46-.23-.69 0-.46.23-.46.23-.23 0 0-.23 0-.46-.23-.46 0-.23-.23-.23-.23 0v.69c0 .46 0 .46-.23 0-.46-.46-.46-.46-.46 0 0 .23 0 .46-.23 0 0 0-.69-.23-1.15-.46-.69 0-.92 0-.92.92 0 .69-.23.92-.46.92-.69.23-.92 1.38-.46 2.07.23.23.46.46.23.69-.23.23.69 2.07 1.15 1.84.23 0 .46 0 .46.23s0 .23.23.23c.23-.23.46-.23.69 0 .46.23.46.23.92-.23 0-.46.46-.69.69-.69.23 0 .23.23 0 .23-.69.23-.46.69.46.69.46 0 1.15 0 1.38.23h.92c.23.23 0 .23-.46.46s-.69.69-.69.69c0 .23-.46.69-.92.92-.46.23-.92.69-.92.69-.23 1.84 0 2.3.46 3.22.69 1.15 2.99 2.07 5.52 2.07 2.53 0 3.91-.23 11.73-1.84 3.22-.92 5.98-1.38 5.98-1.38.23 0-.69 3.68-2.07 8.05C16.6 173.7 6.48 217.4 6.48 225.68c0 2.99.46 4.83.69 4.83.23 0 .46.23.23.46h.23c.23-.23.46 0 .46 0 0 .23.23.23.46.23.46-.23.46 0 .46 1.38 0 .46 0 .46.23 0 0-.23.23-.46.23-.46.23 0 .23-.46.23-1.15-.23-.92-.23-.92.23-.46.23.46.46.92.23 1.38 0 .23 0 .46.23.23.23 0 .46-.23.23-.46 0 0 0-.23.23-.46.23 0 .46-.46.46-.92s.23-.92.46-1.15c.69-.23.69-1.15.23-1.15 0 0-.23.23 0 .46 0 .46 0 .46-.23.23-.23-.46-.23-.69.23-1.38.46-.46.69-1.38.69-2.07l.46-1.61c.23 0 .46-.46.23-.46 0-.23.23-1.61.46-2.99.23-1.38.46-3.22.46-3.91.23-.46.23-1.61.46-2.3.23-.69.46-2.53.92-3.91.23-1.38.46-2.76.69-2.76 0 0 .23-.46.23-.69.23-1.84.92-5.52 1.15-5.75.23-.23.46-1.38.69-2.99 0-.46.46-1.84.69-2.76l.69-3.91c.23-.92.46-1.38.69-1.38 0 0 .23-.23 0-.46 0 0 0-1.15.23-2.07.46-.92.69-2.07.69-2.53.46-1.84.46-2.53 1.38-5.29.23-1.84.69-3.45.92-3.68 0-.23.46-2.3.92-4.37l1.38-4.83c.23-.46.23-1.15.46-1.38 0-.23.23-.69.23-1.15 0-.23.46-1.61.92-2.99.46-1.38.69-2.53.46-2.76 0 0 0-.23.23-.46.23-.46.46-.69.23-.69 0-.23.23-.69.46-.92.46-.69.46-.69.23 0 0 .46-.46 1.61-.69 2.76-.23.92-.46 1.84-.23 2.07 0 0 0 .23-.23.23-.23.23-.46.69-.46 1.15 0 .46 0 .92-.23.69-.23 0-.23.23-.23.69-.23 1.15-.23 1.38-.46 1.61 0 .23-.23.69 0 .69 0 0 0 .46-.23.69-.23.23-.23.92-.46 1.61 0 .92 0 1.38-.23 1.38-.23-.23-.23 0 0 .69s0 .69-.23.46c-.23-.46-.23-.23 0 .46 0 .92 0 .92-.23.69-.23-.46-.23-.23-.23.69.23.69.23.92 0 .46-.46-.23-.46-.23-.23.69v.69c-.23-.23-.46-.23-.46.23-.23.46-.23.46 0 .46s.23 0 .23.23c0 0 0 .23-.23.23s-.23.23-.23.69c.23.46.23.69 0 .23-.23-.46-.46-.23-.46.23s.23.69.46.46c0 0 .23.23 0 .46 0 .23-.23.46-.46.46s-.23 0-.23.23 0 .23.23.23.23.23.23.69c-.23.23-.46.69-.46.46-.23 0-.23 0-.46.46 0 .23 0 .23.23.23 0-.23.23 0 .23.23s-.23.46-.23.46c-.23-.23-.23 0-.23.69.23.69 0 .92 0 .92-.23-.23-.46 0-.46.46 0 2.53-.23 3.45-.46 3.45s-.92 3.68-.69 4.14c.23.23.23.23 0 .23-.46-.23-.46-.23-.46.46.23.46.23.69 0 .69-.23-.23-.23.23-.23.69.23.92.23 1.15 0 .69-.23-.46-.46-.23-.23.69.23.69.23.92-.23.46-.23-.23-.23-.23 0 .69 0 .46 0 .92-.23 1.15 0 0-.23.46 0 .69 0 .46 0 .69-.23.69 0 0-.23.46-.23 1.15s0 1.38-.23 1.61c-.23 0-.23 0 0-.23 0-.46 0-.46-.23-.23-.23 0-.23.23 0 .46s.23.69 0 .92c-.23.23-.23.69 0 .92 0 .46 0 .69-.23.46-.23 0-.23 0-.23.69 0 .23 0 .69-.23.92 0 0-.23.46 0 1.15.23.92.23.92-.46.46-.46-.46-.46-.46-.23.23.46.92.69 2.07.23 1.38-.23-.46-.23-.23-.23.69.23.92.23 1.15-.23.92-.23-.23-.23 0-.23.23.46.46 0 2.53-.46 2.3-.23-.23-.23 0 0 .23 0 .23 0 .69-.23.92.46-.23.46-.23 0 .23-.23.46-.23.69 0 .69.46 0 .46 0 .23.23-.23 0-.23.46-.23.69 0 .23-.23.46-.23.46-.23 0-.23.46-.23 1.15.23.92.23 1.15 0 .69-.23-.23-.23 0-.23.92.23.69.23 1.15 0 .92-.23 0-.23.23-.23.92 0 .69 0 1.15-.23.92-.23-.23-.23.92.23 2.07 0 .23 0 .23-.23-.23-.46-.46-.46-.23-.46 1.61 0 1.15.23 2.3.23 2.53.23.46.23.92-.23 1.15-.46.46-.46.69 0 .92.23 0 .23.23.23.69 0 .69 0 .69.23.23.23-.23.23-.23.69.69l.46.92c0 .23 0 .46.23.92s.46.69.46.69c.23 0 .23-.23.23-.46-.23-.23.46-1.15.69-.92.23 0 .23.46 0 .69-.46.46-.23.46.46.23.23-.23.46-.46.46-.92-.23-.46-.23-.46 0-.23 0 .46.46.46.69.23.23-.23 0-.46 0-.69-.46-.23-.23-.46.23-.23.46 0 .69 0 .69-.46 0-.23-.23-.23-.46-.23-.23.23-.23 0 .23-.23.23-.46.46-.92.46-1.15 0-.23-.23-.23-.23.23-.23.46-.23.46-.23-.23-.23-.46 0-.69.46-.69.23-.23.46-.69.46-1.61.23-.69.23-1.38.46-1.61.23-.23.23-.46.23-.69-.23-.46 0-1.61.46-1.38.23.23.23 0 0-.46s-.23-.92 0-1.38c.23-.23.23-.69 0-.92 0-.23 0-.23.23 0 .23 0 .23 0 .23-.23s0-.23-.23-.23-.23-.23-.23-.46c0 0 0-.23.23 0 .46.23.69-.92.46-2.07 0-.69 0-1.15.23-1.15l.46-.46c0-.46 0-.46-.23-.46-.23.23-.23 0-.23 0 0-.23 0-.46.23-.46s.46-.23.46-.46c0-.46 0-.69-.23-.46 0 0-.23 0-.23-.23s.23-.23.46-.23.46-.23.69-.46c.23-.23 0-.23-.23-.23-.46.46-.46 0 0-.46.23-.23.23-.69 0-1.15-.23-.46-.23-.46.23-.46.23.23.46.23.46 0-.23 0 0-.46.23-.69.46-.46.46-.46 0-.23-.23 0-.69 0-.69-.23s0-.46.23-.23c.46 0 .46 0 .46-.23-.23-.23 0-.46.23-.46s.23-.46.23-.92c-.23-.46 0-.46 0-.46.23.23.46 0 .46-.23s-.23-.23-.46-.23c-.46 0-.46 0-.23-.23.23 0 .46-.46.46-.69-.23-.46-.23-.46.23-.23.23 0 .46-.23.46-.46v-.69c0-.23 0-.92-.23-1.38l-.23-.69 1.38 1.61-.46-.92c-.23-1.15-.23-1.15 0-.92.23 0 .46-.23.46-.46 0-.46-.23-.69-.23-.69-.23-.23-.23-.23 0-.23.46.23.46 0 .46-.69-.23-.46 0-.69.23-.46 0 0 .23-.46.23-1.38 0-1.15 0-1.38.46-1.38.23.23.23 0 0-.69-.23-.46-.23-.69 0-.69s.23-.46.23-.92 0-.69.23-.46c.23 0 .23-.23 0-.69 0-.46 0-.69.23-.69s.46-.23.23-.46c0-.69.46-.69.69-.23.23.23.23.23.23-.23-.23-.23-.23-.46-.46-.46s-.23-.23-.23-.69c.23-.46.46-.69.69-.23.23.23 0-.46-.23-.92 0-.46 0-.69.23-.69s.23.23.23.46.23.23.23.23c.23-.23 0-.46-.23-.92-.23-.23-.23-.69 0-.69 0-.23.23-.23.46 0 .23.46.23.46.23 0 0-.23-.23-.46-.23-.69-.23-.23-.46-.46-.23-.69 0 0 .23 0 .46.23.23.46.23.46.23 0 0-.23 0-.69-.23-.92-.23-.23-.23-.46 0-.69.23-.23.23-.23.46.23v.23c.23-.23 0-.69-.23-.92-.23-.46-.23-.46.23-.92.46-.23.46-.46.23-.46-.23-.23-.23-.46.23-.69.23-.23.23-.46 0-.46l-.23-.23c0-.23 0-.46.23-.23s1.15-2.3.92-2.76c-.23 0-.23-.23 0-.23s.23-.23.23-.69c0-.23 0-.46.23-.46 0 0 .23-.46 0-.92-.23-.92 0-.92.46-.92.23 0 .46-.23.23-.23-.69-.23-.69-1.38-.23-1.61.23 0 .23-.23.23-.46-.23-.23-.23-.23 0-.23.23.23.46.23.69 0 0-.23 0-.23-.23-.23s-.23-.23-.23-.69c0-.46 0-.46.23 0s.46.23.69-1.15c.23-.46.23-.69 0-.46-.69.23-.23-.69.23-1.15.46-.23.46-.46 0-.69-.46-.23-.46-.23 0-.23.23 0 .23-.23 0-.46-.23-.46-.23-.46 0-.69.23-.23.23 0 .23.23-.23.23-.23.23 0 .23.23-.23.23-.69.23-.92-.23-.23 0-.69 0-.69.23 0 .46-.23.46-.46.23-.23.23-.23 0-.23-.46.23-.46.23 0-.23.23-.23.23-.46 0-.69 0 0 0-.23.23-.23s.23 0 .23-.23c-.23-.23 0-.23.23-.23s.23-.23 0-.69c-.23-.23-.23-.23-.23-.46.46.23.92-.69.92-1.61 0 0 .23-.46.23-.69.23-.46.46-2.3.69-3.45 0-.23.23-.69.23-.69.23 0 .23-.23.23-.46-.23-.46 0-.69 0-.92.23 0 .23-.46.23-.69v-.46c.46.23.92-1.15 1.15-2.53 0-.46.23-1.15.46-1.61.23-.46.23-.92.23-.92-.23 0 0-.69.46-1.61l2.07-6.9c0-.23 0-.46.23-.69.23-.92 1.38-4.6 1.38-5.29 0-.23.23-.69.23-.92.23-.23 1.38-3.45 1.38-3.68.46-1.84.23-1.84 5.52-2.76 11.27-1.61 20.01-2.53 25.53-2.07 4.14.23 6.21.69 8.05 1.84.69.69 1.61 1.15 1.61 1.15.23 0 .23-.92.23-1.84 0-1.15-.23-1.61-.69-2.3-.92-.92-.92-.92-.23-.69.69.23.69 0 .69-.92 0-.46-.23-1.38-.69-2.07l-.69-1.84c-.23-1.15-2.53-3.45-4.6-4.37-4.37-2.07-9.89-2.53-21.16-2.3H53.4l.23-.46c0-.46 0-.92.23-.92v-.46s0-.23.23-.23.92-1.84.92-2.99c0-.23.23-.69.23-.69.23 0 1.38-3.45 1.38-4.14 0-.23 0-.46.23-.46s.69-1.84.92-3.22l.69-1.15c.46-1.61 1.84-5.29 1.61-5.29 0 0 0-.23.23-.69.23-.46.46-1.15.23-1.38 0-.23 0-.23.23-.23.23.23.46 0 .46-.23 0-.46 1.84-6.44 2.3-7.36.23-.46.46-1.15.46-1.38 0-.23.23-.92.46-1.38.23-.46.46-.69.46-.92 0-.23.92-3.45 1.15-3.68.23-.23.46-.92.46-1.61l.69-1.84c.23-.69.46-1.38.69-1.61.23-.92.92-3.22 1.61-4.6.23-.69.46-1.61.46-1.84 0-.23 0-.69.23-.69v-.46c.23-.69.92-2.76 1.15-2.99.23-.23.23-.46.23-.46-.46 0 .69-2.3 1.15-2.76.69-.23.69-.23 0-.23-.46.23-.46.23 0-.46l.92-2.76c.46-1.15.69-2.07.69-2.07.23 0 .23-.23.46-.46 0-1.38.92-3.68 1.38-3.91.23-.23.46-.46.23-.92-.23-.69.69-2.99 1.15-2.76.23 0 .23 0 .23-.23s0-.46-.23-.46-.23 0-.23-.23c.23-.23.46-.69.46-.92 0-.46.23-.92.69-1.15.23-.23.23-.23 0-.23-.23.23-.46.23-.23-.23l.69-1.61c0-.46.46-1.38.69-1.84.23-.69.46-1.15.46-1.38 0-.23 0-.69.23-.69 0-.23.23-.46.23-.69 0-.23.46-1.61.69-2.76.69-2.3.92-2.53 2.53-2.99l3.45-.46c.69 0 1.61-.23 2.07-.23l3.91-.69c.69 0 1.15-.23 1.38-.46.23-.23.23-.23.46 0s1.15.23 2.07 0c.23-.23.46-.23.92-.23.23 0 .92-.23 1.84-.23.69-.23 1.61-.23 2.07-.23.46 0 .92-.23 1.15-.23 0-.23.69-.23 1.38-.23s2.07-.23 3.22-.23c.92-.23 2.3-.23 3.22-.23.69 0 1.15-.23 1.15-.23 0-.23 1.15-.23 2.3-.23s2.3 0 2.3-.23h.69c.46.23.69 0 .69-.23s.23-.23.46.23l.23.23c0-.23.46-.23 1.15-.46.46 0 1.15 0 1.15-.23s.23-.23.69 0c.46.23.69.23.69 0s0-.23.46 0 .46.23.69 0c.23-.23.23-.23.46 0 .23.46.69.46.69-.23 0-.46.23-.46.69 0 .69.69.69.69.69 0 0-.46 0-.46.69 0 .69.69.69.69.46-.23-.23-.23-.23-.46 0-.46.46.69 1.38 1.38 1.15.92 0-.23.23-.23.92-.23.69 0 1.15 0 1.15.23s0 .23.23 0c.23-.46.23-.46.69 0 .46.23.46.23.69-.23.23-.46.23-.46.46-.23.23.46.46.46.92 0 .23-.23.69-.46.92-.23.23.23.46.23.69.23.23-.23.23 0 .23 0 0 .23.23.46.23.23.23 0 .23-.23.23-.46-.23-.23 0-.23.23-.23 0 .23.23.46 0 .69 0 0 .23.23.69.23.46 0 .92-.23.92-.46l.46-.46c.23 0 .23 0 .23.23s.23.23.69.46c.92.23 2.07 0 1.84-.46-.23 0 .23-.23.69-.23.69 0 .92 0 .92.46 0 .23.23.46.92.46.46 0 .92-.23.69-.46 0 0 .23-.23.69-.23.46 0 .69.23.69.23-.23.23 0 .46.23.69.23 0 .23 0 0-.23 0-.23 0-.46.69-.46.46 0 .69.23.46.46 0 .23.23.23.46.23s.46 0 .23-.23 0-.46.46-.23 1.15.23 1.84.23c.69.23 1.38.46 1.61.69.23.23.23.23.23 0s.23-.23.92 0h.92v.23s0 .23-.23.46h.23c.46 0 .46-.23.46-.46-.23-.23 0-.46.23-.23s.69.23 1.38.46c1.38 0 3.91 1.38 3.91 1.61 0 .23.23.46.69.69.23.23.92.92 1.15 1.84.92 2.53 1.84 1.61 2.53-2.3.69-3.68.23-7.13-1.38-9.43zM71.11 30.18c-.23.23-.23.46-.23.46.23.23 0 .23-.23.23s-.23.23-.23.23c.23.23 0 .46-.23.92l-.69 2.3c-.23.92-.46 1.61-.69 1.84-.23.23-.46.69-.46.69 0 .92-.46 2.3-.69 2.3 0 0-.23.46-.23.69 0 .69-.92 2.76-1.38 3.22 0 0-.23.23-.23.69 0 .23 0 .69-.23.92 0 .23-.23.69-.23 1.15-.23.46-.46.92-.69.92-.23 0 0 0 .23.23s.23.23 0 .23-.46.69-.69 1.38c-.23.92-.46 1.38-.69 1.38-.23.23-.23.23 0 .46.23 0 .23.23-.23.69-.23.46-.46.92-.46 1.15 0 1.15-.23 1.15-.46.92-.23 0-.23 0-.23.23.23.46 0 1.84-.46 1.84v.46c.23.46 0 .46-.23.46-.23-.23-.23-.23-.23 0 0 1.15 0 1.84-.46 1.84-.23-.23-.23-.23-.23.23.23.23.23.46 0 .46s-.23.23-.23.46c0 .69-.23 2.07-.69 2.07-.23 0-.23.23-.23.69 0 .46-.23 1.38-.69 2.07-.23.69-.46 1.15-.23 1.38h-.23c-.23.23-.46.23-.46.46.23.69-.69 3.45-.92 3.45-.23 0-.23 0-.23.23 0 0-.23.69-.23 1.38-.23.69-.46 1.38-.23 1.38 0 .23-.23.23-.46.23-.46-.23-.46-.23-.23.46 0 .23 0 .46-.23.46s-.23.46-.23.92-.23.69-.23.69c-.46 0-.92-.46-.46-.92 0-.23 0-.92.23-1.38 0-1.84.46-2.53.69-2.3.23 0 .46-.23.23-.46 0-.46 0-.69.23-.46.23 0 .23 0 0-.46 0-.23 1.15-4.14 2.76-8.51l3.45-9.2c0-.46.46-.92.46-.69.23 0 .23-.23.23-.46-.23-.46 0-1.15.23-1.61.23-.46.46-.92.23-1.15 0 0 0-.23.23-.23h.23v-.92c.23-.69.23-.92 0-.92s-.69.23-.69.46c-.23.23 0 .23.23 0 .23 0 .23.23-.23.46s-.69.69-.92.92c0 .46 0 .46-.23 0 0-.46.23-.92.46-1.38.46-.46.46-.69.23-.69-.23-.23-.23-.46 0-.92s.46-.69.69-.46c.23 0 .69 0 .69-.23s.23 0 .23.23c0 .69-.23.69-.69.69-.46-.23-.69-.23-.69 0s.23.23.46.23c0 0 .23 0 .46.23 0 .23.23.23.69-.23.23 0 .23-.46.23-.46-.23-.23-.23-.23 0-.23s.23-.23.23-.46c0-.46-.23-.46-.69-.46-.92.23-.92.23-.69-.69 0-.46.23-.92.23-.69.23 0 .46 0 .46-.23.23-.23.23-.23 0-.23 0 0-.23 0-.23-.23-.23-.23.23-1.38.46-1.38s.23-.69.46-1.84c0-.23.23-.23.46-.23.46.23.46 0 0-.23-.23-.23-.23-.46 0-.46s.23-.46.23-.92.23-.92.46-.92.23-.23 0-.46c0 0 0-.46.23-.69 0-.23.23-.46.23-.46 0-.92.92-2.76 1.15-2.76v-.69c0-.46.23-.69.92-.92.92-.23 1.84-.46 2.53-.23.46 0 .46.69.23 1.38zm-10.35-9.2-6.9 1.38c-1.15.23-2.3.46-2.53.46-.23.23-.23.23-.46.23 0-.23-1.15 0-2.3.23-1.38.46-2.3.46-2.53.46 0-.23-.23 0-.46 0-.23.23-.46.46-.46.23 0 0-.46 0-.92.23-.69 0-2.53.46-4.14.92-1.84.23-3.45.69-3.68.69-.23.23-.46 0-.46-.23s.69-.69 1.61-.69c.23 0 .92-.23 1.15-.23.23 0 .69-.23.92-.23.92 0 2.53-.46 2.76-.69 0 0 .23-.23.46 0 .46 0 .69 0 .92-.23 0-.23.23-.23.69-.23.23.23.69.23 1.15 0 .69-.23 1.15-.23 1.15 0 0 0 0 .23.23.23s.23-.23 0-.46c0-.23 0-.23.46 0 .23 0 .46 0 .46-.23s.23-.23.69-.23c.23.23.69 0 .69 0 0-.23.46-.23.69-.23.23 0 .69 0 .92-.23.23 0 .46-.23.69 0 .23.23.23 0 .23-.23-.23 0 0-.23 0-.23.23 0 .46.23.46.23 0 .23.23.23.69 0 .23-.46.69-.69 1.15-.46.46.23.92 0 .92-.23.23-.23 2.07-.46 2.07 0 0 0 .23 0 .69-.23.23-.46.92-.46 1.38-.46.69 0 1.15 0 1.38-.23.46-.46 1.15-.69.69-.23-.23.46.69.46 1.15-.23.23-.23.69-.23 1.15-.23.46 0 .69 0 .69-.23 0 0 .46-.23.92 0s.69 0 .46 0c0-.23.23-.46.69-.23h1.15c.46 0-.69.69-1.61.92-.23 0-2.53.46-5.06.92zm41.63-6.67c-1.38.23-2.76.46-2.99.46-.46 0-.92.23-1.38.23-.23-.23-2.07 0-3.68.23-4.37.69-5.06.92-6.67.92-.69.23-1.84.23-2.07.46l-.69.23.69-.92c.46-.46.69-.69.92-.46.23.23.69.23 1.38 0 .46-.23 1.15-.23 1.38-.23.46.23.69 0 .69-.23 0-.46 0-.46.46-.23.46.46.46.46.23 0-.23-.23-.23-.23.23 0 .46.46.69.23.69-.23-.23-.23 0-.23.23-.23.46 0 .46 0 .46.23-.23.23-.23.23.23.23.23-.23.69-.23.92-.23.23 0 .23 0 0-.23-.46-.23-.23-.23.23-.23s.92 0 .92.23.23 0 .69-.23c.69-.23.92-.46 1.15-.23.23.23.69.23.92.23.46-.23.46-.23.23-.46s.46-.23 1.38 0c.92 0 1.61-.23 1.61-.23-.23-.46 1.61-.23 2.07.23.23.23.92.23 1.38.23 1.84 0 .92.23-1.61.46zM17.06 128.16l-.46-.23.46.46c.69.46.69.46-.23.23-.46 0-1.61.23-3.22.69-2.99.92-2.99.92-2.76.46.23-.23 0-.46-.46-.46-.23 0-.46 0-.46.23v.46c0 .23-.23.23-.69.23-.23 0-.46 0-.46-.23.23-.23 0-.23-.23-.23-.46.23-.46 0-.46-.46 0-.23-.23-.46-.46-.46s-.46 0-.46-.23c0 0 0-.23.23-.23s.69-.23 1.15-.46h.46l-.46.46c-.69.46-.69.46-.23.46.46 0 .69.23.69.46s0 .23.23 0c.23-.69 2.99-.92 2.99-.23h.46c0-.23.23-.46.69-.46.23 0 .46-.23.92-.23 2.53-.69 3.45-.92 3.45-.46.23.23.23.23.46.23.23-.23.46 0 .46 0 .23.46 0 .46-1.61 0zm138-110.86c-.23 0-1.15-.46-2.07-.46l-2.3-.69c-2.53-.69-6.21-1.15-9.66-1.38-.92-.23-1.84-.23-2.3-.46-.69-.46-.69-.46.23-.23.69 0 2.07.23 2.99.23.92.23 2.07.23 2.3.46.23 0 1.38 0 2.3.23 1.15 0 2.76.46 3.91.69 1.15.23 2.53.46 2.99.46 1.61.23 2.3.46 2.3.92 0 .69 0 .69-.69.23zM62.6 120.11c1.15 0 2.07-.23 2.07-.23.23-.23 2.76-.23 5.75-.23 5.06 0 5.52 0 5.52.46 0 .23 0 .46-.23.23 0-.46-1.15-.69-1.38-.23-.23.23-.46.23-.69.23-.46-.23-.92-.23-1.38-.23-.46 0-2.53 0-4.6.23h-4.14c0 .23-.69.46-2.07.23-1.84-.23-.92-.69 1.15-.46zm-33.81 5.52c-1.38.23-2.53.69-2.3.69 0 .23 0 .23-.23.23-.46-.23-1.61 0-2.99.46-1.38.23-2.76.69-2.99.69-.23 0-.46 0-.46.23.46.46-.46.23-1.15-.23-.46-.23-.46-.46 0-.46.23 0 .46.23.46.46.23.23.23.23.23-.23s.23-.46.69-.23c.23 0 .69 0 .69-.23.23-.23.46-.23.69-.23 0 .23.46.23.46 0 .23-.23.69-.23.92-.23.92-.23 3.68-.92 3.91-1.15 0 0 .69 0 1.38-.23.46 0 1.15-.23 1.15-.23.23-.46 1.84-.46 1.84-.23s-.92.69-2.3.92zm25.53-49.45c0 .23-.23.46 0 .46 0 .23 0 .23-.23.23s-.23.23-.23.46v.46c-.23 0-.23.23-.23.46s0 .46-.23.46c0 0-.23.23 0 .46 0 .46 0 .46-.23.46-.46 0-.46.23-.23.23.23.23 0 .69-.46 1.15l-.69.69.23-.69.69-1.15c0-.23.23-.92.23-1.38.23-1.15.69-2.53 1.15-2.53.23 0 .23 0 0-.46-.23-.23-.46-.23-.69-.23-.23 0-.23 0 0-.23 0-.46.23-.46.69 0 .46.46.69.69.23 1.15zm.69 44.39c.46 0 1.84-.23 2.99-.23 2.07-.23 2.3-.23 2.3.23.23.46 0 .46-.23.23s-.46-.23-.46 0-.23.23-.23.23c-.23 0-.23 0-.23-.23.23-.23 0-.23-.23 0-.46.23-.46.23-.46 0s-.23-.23-.46 0-.69.23-.92.23c-.23-.23-.46-.23-.69 0-.46.23-2.3.23-2.3-.23 0 0 .23-.23.92-.23zm106.03-101.2c-.46.23-.69.46-.69.46-.46 0-1.38-.92-1.15-.92.23 0 .23-.23-.23-.46s-.92-.23-.69 0c.23.23 0 .46 0 .46-.23 0-.46-.23-.46-.46 0 0-.46-.46-.92-.46-.69-.23-.92-.46-.69-.69.46-.46 4.14 1.38 3.91 1.84 0 .23 0 .23.69.23.46-.23.46-.23.23 0zm-42.55-5.52s-.23 0-.69-.23c-.23-.23-1.38-.23-2.99-.23-1.61 0-2.53 0-2.53-.23 0 0 1.61-.23 3.22-.23 2.53 0 2.99.23 2.99.46v.46zm-9.66 0c-1.38 0-2.76.23-2.99.23 0 0-.23 0-.23-.23-.23-.23 3.22-.46 5.29-.46s.69.23-2.07.46zm-34.5 4.14c-.46.69-2.99.92-3.68.46-.23-.23-.23-.23 0-.23h1.15l1.84-.46c1.15-.23 1.15-.23.69.23zm-39.56 8.05c-2.53.46-3.22.69-3.22.23l.92-.46c.69 0 1.38-.23 2.07-.23.69-.23.92-.23.92 0s-.23.46-.69.46zM59.84 44.9c.46-.46.46-.69.46-1.61 0-.23 0-.46.23-.23.23.46.23 1.15 0 1.61-.23.23-.23.46-.23.46.23 0 0 .23-.23.46-.46.23-.46.69-.46.92.23.46.23.69.23.69s-.23 0-.46-.23c-.46 0-.23-1.38.46-2.07zm-6.67 76.36c-.23.46-.69.46-1.15.46-.69-.23-1.15-.23-1.38 0 0 .23-.23.23-.23-.23s1.38-.92 2.07-.23c.46.23.46.23.23-.23-.23-.23-.23-.23 0-.23 0 .23.46.23.69 0 .46-.46.46 0-.23.46zm-.92-39.33c.46 0 .23.46-.23.92-.23.23-.23.69-.23.92.23.23 0 .23-.23.23-.23-.23-.23-.23-.23.23.23.92 0 .92-.23.23-.23-.46.69-2.53 1.15-2.53zm8.05-30.82c.46-.46.46-.69.23-.92.23 0 .23-.46.23-.69 0-.46.23-.69.46-.69s.23.23 0 .46c-.23.69-.46 1.84-.46 2.3 0 .23-.23.23-.46.23s-.23 0 0-.69zm64.4-37.72c0 .23-1.61.46-1.84.23-.46-.23-.23-.46.92-.46.69 0 .92 0 .92.23zM50.18 87.45c-.23-.23 0-.46.23-.69.23 0 .23-.23 0-.46 0-.23 0-.46.23-.46.23-.23.23-.46.23-.92.23.46.23.92 0 1.38-.23.69-.23 1.15-.23 1.15 0 .46-.23.46-.46 0zm27.6 32.43c.46 0 .92.23.92.23 0 .46-.46.69-.69.46-.23-.23-.46-.46-.69-.23-.23 0-.46 0-.46-.23 0 0 .46-.23.92-.23zM61.45 41.22c.46-.23.46-.23 0 .23-.23.23-.23.23 0 .46h-.69c0 .23.23.46.69.69.46.46 0 .46-.69 0-.46-.23 0-1.15.69-1.38zm-.23 7.13c-.46-.46-.46-.46.23-.23.46 0 .92.23.92.46.23.46-.46.23-1.15-.23zm-11.5 24.61s.23-1.38.69-1.84c.23 0 0 .23 0 .69-.23.69-.46 1.15-.69 1.15zM14.76 226.83c-.23-.23-.46-.46-.46-.23s0 .46.23.69c.23 0 .23.23.23.46-.23.23-.23.23 0 .23.46 0 .46-.46 0-1.15zm14.95-73.14v1.38c0 .23-.23.23-.46.23s-.23 0 .23-1.15c0-.23.23-.23.23-.46zM82.38 28.8c0 .23-.23.23-.23 0s0-.46-.23-.23v.69c.46.46.46.46.69 0 0-.46 0-.46-.23-.46zm-2.76 91.31c.46 0 .69.23.69.23 0 .23-.92.46-1.15.23 0-.23.23-.46.46-.46zm61.87-99.13c-.46 0-.46.69 0 .69.23.23.46.23.46.23v-.46l-.46-.46zm-20.47-7.59c-.23 0-.46.23-.46.23-.23 0-.46-.23-.46-.23 0-.23.23-.46.46-.46.46 0 .46.23.46.46zM53.86 60.77c.23-.46.92-.46.92 0 0 0-.23 0-.46.23-.46 0-.46 0-.46-.23zM82.84 5.34c.46 0 .46-.23.46-.69-.23.23-.46.23-.46.23-.23-.23-.46 0-.46 0 0 .23.23.46.46.46zm51.29 8.74c-.23 0-.46 0-.46-.23-.23-.23 0-.23.46-.23.23 0 .46 0 .46.23s-.23.23-.46.23zm-12.19-.46c0 .23-.23.23-.46 0-.23-.46 0-.92.46-.46v.46zm-69.23 50.6c.23-.23.23 0 .23.46-.23.69-.46.69-.46 0 0-.23.23-.46.23-.46zM23.73 216.48c-.23 0-.23.23 0 .92.23.69.23.46.23-.23 0-.23 0-.69-.23-.69zM57.54 49.5c.23-.23 0-.23-.23-.23 0 .23-.23.46-.23.69 0 .69.46.23.46-.46zm-34.5 172.04s-.23 0-.46.23c0 .23 0 .46.23.46s.46-.23.46-.46-.23-.23-.23-.23zm11.73-47.61s-.23.23-.23.46 0 .46.23.46c0 0 .23-.23.23-.46.23-.23 0-.46-.23-.46zM6.71 120.57c.23 0 .46-.23.46-.23s-.23-.23-.46-.23c-.23-.23-.46 0-.46 0 0 .23.23.46.46.46zm73.6-87.17s.23.23.46.23.46-.23.46-.23c0-.23-.23-.23-.46-.23s-.46 0-.46.23zm51.98-19.55c-.69 0-.92 0-.69-.23h1.15c.23.23 0 .23-.46.23zm-12.65-.46-.23.23-.23-.23c-.23-.23 0-.46.23-.46s.46.23.23.46zm5.52.23c0-.23 0-.46.23-.46 0 0 .23 0 .23.23 0 .69 0 .69-.46.23zM32.93 142.88c-.23.46-.46.69-.46.23 0-.23 0-.46.23-.46.23-.23.23 0 .23.23zM140.11 20.75c-.23.69-.46.69-.46.23 0 0 0-.23.23-.46.23 0 .23 0 .23.23zm-80.04 32.2c-.23.46-.46.69-.46.23 0-.23.23-.46.23-.46.23-.23.23 0 .23.23zm-28.75 96.14c-.23 0-.23 0-.23-.46 0-.23 0-.23.23-.23 0 0 .23 0 .23.23 0 0-.23.23-.23.46zm122.36-131.1s-.23-.23-.23-.46c-.23 0-.23-.23 0-.23s.46.23.46.23c0 .23-.23.46-.23.46zM10.85 232.58c-.23 0-.46.23-.46.46 0 .46.23.23.46-.23.23-.23.23-.46 0-.23zm124.2-211.83c-.23 0-.23-.23-.23-.46.23 0 .23-.23.23-.23.23 0 .23.23.23.23 0 .23-.23.46-.23.46zm-8.28-6.9s-.23 0-.23-.23c-.23-.23 0-.23 0-.23.23 0 .46 0 .46.23s0 .23-.23.23zM30.86 149.78c-.23.46-.23.69 0 .69v.23c-.46 0-.46-.46 0-.92zM61.68 39.61l.46.46h-.46s-.23 0-.23-.23.23-.23.23-.23zM26.95 204.52c0 .23-.23.23-.23.23s-.23 0-.23-.23c-.23-.23-.23-.23 0-.23s.46 0 .46.23zM65.13 41.45c-.23.23-.23.23.23.23.23 0 .46 0 .46-.23h-.69zM30.17 152.77c-.23.23-.23 0-.23-.23 0-.46.23-.46.23-.23v.46zm-8.05 32.43v-.46c0-.23-.23-.23-.23.23 0 .23 0 .46.23.23zM64.21 42.37c-.23.23-.23.23.23.23.23 0 .46 0 .23-.23h-.46zm73.14-28.29h-1.15c.46-.23.92-.23 1.15 0zm6.21 7.13h-.69c.23-.23.46-.23.69 0zm-12.145 120.52c-2.07-.23-2.53 0-5.52 5.52-1.84 2.76-3.22 5.06-3.45 5.06 0 0-.23.23-.23.46s-.92 1.38-1.61 2.76c-1.61 2.53-2.99 4.83-2.99 5.29.23 0 0 .23-.23.23 0 0-.23 0-.23.23 0 0-.46 1.38-1.38 2.53-.92 1.38-1.61 2.76-1.61 2.99-.46-.23-1.15.69-.92.92 0 .23 0 .23-.23.23s-.46.23-.69.46c0 .23 0 .23.46.23l-.46.23c-.23 0-.46.23-.46.46 0 .46 0 .46-.23.46-.23-.23-3.22 3.68-3.22 4.37 0 .23-.23.46-.46.69v-.23c.23-.23-.46.23-1.61 1.15-1.15 1.38-1.61 1.61-2.3 1.38-.92-.23-2.07-1.38-1.38-1.38.23 0 .23 0 0-.46-.23-.23-.46-.46-.23-.69 0-.23 0-.46-.23-.46-.23-.23-.46-.46-.23-.46 0-.23 0-.46-.23-.46s-.23 0-.23-.23c.69-.69.46-4.14 0-4.6-.23-.23-.23-.23.23-.23s.46-.23.69-2.76c.46-1.61.69-2.99.92-3.45.46-.69.69-1.15 1.61-5.29.23-2.53.69-3.68 1.61-6.9 0-.23.23-1.15.23-1.61l1.15-2.99 14.49-19.55c-11.04 7.13-9.2 4.14-8.74 4.14 0 0 .23 0 .23-.23-.23 0 0-.23 0-.46 0 0 0-.46.23-.92 0-.23.23-.92.46-.92.23-.23.23-.69.23-.92l.46-.92.46-.46c0-.23 0-.46 2.07-4.6 2.53-5.75 3.45-8.51 2.53-8.51-.23 0-.23-.23 0-.69.23-.46 0-.46-.23-.46-.46.23-.46 0-.69-.23-.23.23-.46.46-.69.23-.23 0-.23-.23-.23-.46 0 0 0-.23-.23-.23l-.23-.23c.23-.23.46-.23.46-.23.23 0 .23 0 .23-.46-.23-.69-1.84-2.07-2.99-2.3-.46-.23-.69-.23-.69-.46.23-.23 0-.23-.46-.23-1.15 0-1.61-.23-2.53-.92-1.61-1.61-2.76-1.15-5.29 2.07-5.98 8.05-12.19 23.46-14.95 36.11-.69 3.68-2.07 11.04-2.3 13.57-.46 2.53-.23 3.45.23 3.45 0 0 .23-.23 0-.46 0-.23 0-.46.23-.69l.46 1.38c0 .92 0 1.38-.23 1.61-.23 0-.69.46-.92 1.15-.46.92-.69 1.61-.69 3.91 0 3.22.46 5.75 1.38 7.82 1.15 3.22 4.14 5.98 7.59 7.13.92.23 1.84.46 2.3.46 1.15 0 5.52-1.38 7.59-2.3 3.22-1.38 4.37-2.53 7.59-6.21 1.61-2.07 3.22-3.91 3.22-4.14.23 0 1.38-1.38 2.3-2.53l1.84-2.53s.23-.23 0-.23c0-.23.46-.69.92-1.38s.92-1.15.92-1.38c0 0 .69-1.38 2.07-3.22 3.91-6.44 8.51-14.72 8.51-15.64 0-.46-2.07-1.15-3.45-1.38zm5.52-64.63c-.23-1.15-2.3-4.14-3.45-5.06l-2.53-1.61c-2.07-1.15-3.45-1.15-5.06.23-.69.46-1.61.69-2.3.69-2.07 0-3.91 1.84-5.75 5.29-.92 1.38-1.15 2.07-1.15 4.14-.23 5.52 1.84 8.51 7.36 10.81 1.84.46 5.52.46 6.21 0 .23-.23.46-.23.69-.23 0-.46 1.38-1.38 1.84-1.15h.23c0-.23.46-.92 1.38-1.84 1.84-1.61 2.76-2.99 2.99-4.6 0-.46.23-1.15.46-1.61.23-.46-.23-3.45-.92-5.06zm-34.73 63.71c-.46 0-.46.23-1.15 1.84 0 .23-.23.69-.23.92-.23.23-.23.46-.23.46.23 0 0 .69-.23 1.61-.23.92-.46 1.61-.46 1.84.23 0 0 .23 0 .23-.23 0-.46.23-.23.23-.23.23-.23.69-.46 1.15-.23.46-.23.92 0 1.15.23.23.23.23 0 .23-.23-.23-.69.46-.46 1.15 0 0 0 .69-.23 1.15-.23.23-.46.92-.23 1.38 0 .46 0 .69-.23.46 0 0-.23 0-.23.23 0 .46-.23.69-.23.69-.46 0-.46 0-.23.23s.23.92.23 1.15c-.23.46-.23 1.61-.69 2.76 0 1.38-.23 2.07-.46 2.3-.23.23-.46.23-.23.46s.23 1.38 0 2.53c0 2.07 0 2.76-.23 2.53 0-.23-.23-2.07-.23-2.99.23-.46 0-.69 0-.69-.23 0-.23-.46-.23-1.15l.23-5.06c-.23-3.22 0-3.68.23-3.45.46 0 .46 0 0-.46 0-.23 0-.46.23-.69.46-.46.23-2.07-.23-1.61-.23 0-.23 0 0-.46.46-.23.46-.46 0-.69-.46-.23-.46-.46-.23-.46s.23 0 0-.46 0-1.15.46-.92c.23.23.46-.46.23-.92-.23-.23 0-.69.46-1.15.46-.46.69-.69.46-.69-.69.23-.69-.46-.23-.92.23-.23.23 0 .23.23-.23.23-.23.23 0 .23.23-.23.23-.46 0-.92s-.23-.69.23-1.15c.46-.23.46-.23.23-.23-.46.23-.46-.23.23-.69.23 0 .23-.46.23-.69 0-.23 0-.46.23-.46.23.23.23-.23.23-.69-.23-.46-.23-.69 0-.46.23.23 3.68-10.35 3.45-10.81 0-.23 0-.23.23 0 .23 0 .46-.46.69-1.38.23-.69.46-1.38.69-1.38.23 0 .46-.23.23-.46 0-.23 0-.46.23-.46s.23-.23.23-.69c-.23-.92.23-2.07.46-1.84.23 0 .46-.46.69-.92 0-.69.23-1.15.92-1.38.23-.23.46-.69.46-.92 0-.46.23-.69.23-.92.46-.23.23 1.84-.46 2.3l-1.61 5.52c0 .46-.23.69-.46.69s-.23.23 0 .69c.23.46.23.69-.23.46-.23-.23-.23 0 0 .23 0 .23 0 .46-.23.46s-.23.46-.23.69c0 .46 0 .69-.23.69v.46c.46.46 0 .69-.23.69s-.46.23-.23.92c0 .46 0 .92.23.92s.23 0 .23.23-.23.23-.46.23-.23.23-.23.46-.23.69-.23.69c-.46.23-.46.46 0 .46.46.23-.23 3.68-.92 4.14-.23.23-.46.23-.23.23s.46.23.46.46c.23.23 0 .46 0 .46zm24.15-54.05c-1.84.69-2.3.69-2.53 0-.23-.92-.46-2.99-.23-2.99.23-.23 2.99 1.84 3.22 2.3 0 .23-.23.46-.46.69zm-31.97 88.78c-.46-1.61-.46-1.84-.23-1.38l.69 1.15c0 1.38-.23 1.38-.46.23zm7.36-10.12c0-.23 0-.46.23-.69.46-.46.23-.23.23.23 0 1.15-.23 1.15-.46.46zm9.2 5.75c-.23.46-.69.92-.69.92s0-.46.46-.92l.46-.92c.23 0 0 .46-.23.92zm-2.99-54.74c.23 0 .46.23.46.46s-.23.46-.46.46c0 0-.23-.23-.23-.46s.23-.46.23-.46zM95.535 176c-.23.23-.23.46-.23.23s-.23-.69 0-.92c-.23-.46-.23-.46.23-.23.23.23 0 .69 0 .92zm36.11-100.05c-.23.23-.46-.23-.46-.69 0-.23.23-.23.46 0 0 .23.23.46 0 .69zm-36.57 98.21c0 .23-.23 0-.23-.46.23-.23.23-.46.23-.23.23.46.23.69 0 .69zm6.44-4.6c-.46.46-.69.46-.23 0 0 0 0-.23.23-.46.23 0 .23 0 0 .46zm-5.75 7.82c-.23 0-.23-.23-.23-.46 0 0 0-.23.23 0 .23 0 .23.23.23.23 0 .23 0 .23-.23.23zm-6.67-14.26c0-.23.23-.46 0-.69 0-.23-.23-.23-.23.23 0 .23.23.46.23.46zm15.87-38.87v-.69c0-.23-.23-.23-.23.23 0 .23 0 .46.23.46zm-11.04 48.99c.23-.46.23-.46.23-.23.23.23.23.46 0 .46 0 .23-.23 0-.23-.23zM235.186 61.46c-.69-1.15-1.15-1.38-1.38-1.15h-.46c.23-.23 0-.69-.46-.92-.92-.69-1.15-.69-.92-.23.23.23 0 .23-.23.23 0-.23-.23-.46 0-.46 0-.23-.23-.46-.46-.46-.46-.23-.69-.46-.69-.69 0 0-.23 0-.69.23-.23 0-.46.23-.46 0 .23-.23-.23-.69-.69-.69-.23 0-.46-.23-.46-.23-.23-.23-.69-.46-1.15-.46-.46 0-.69-.23-.69-.23.23-.46-5.52-2.3-8.28-2.76-.69 0-1.84-.23-2.76-.46-.69 0-2.07-.23-2.76-.46-.69 0-1.84-.23-2.3-.23-.69-.23-2.07-.23-2.76-.23s-1.61-.23-1.84-.23c0-.23-.46-.23-.92-.23-.23.23-.92.23-1.15 0-.46-.23-.69-.23-.92 0-.23.23-.46.23-.46 0 0-.46 0-.46-.46 0-.46.23-.46.23-.23 0 .23-.46.23-.46-.23-.23-.46.46-.46.46-.46.23 0-.46-1.84-.46-9.43-.46-1.61 0-5.98.23-9.43.46-.69.23-2.3.23-3.45.23-.92 0-1.84 0-1.84.23s-.92.23-1.61 0l.46-.46c.46-.23.46-.46.23-.46s0-.23.46-.92l.46-1.38c-.23-.23-.23-.46 0-.46s.46-.23.69-.69c.23-.46.46-1.15.46-1.61.23-.23.23-.69.23-.92l.23-.23c.23 0 .69-.46.92-1.38l1.15-2.07c.23-.46.23-.92.23-1.15.23 0 .46 0 .46-.23s.69-1.38 1.38-2.76 1.15-2.53 1.15-2.53c-.23 0 0-.23.23-.46s.46-.69.46-.92c-.23-.46-.23-.46 0-.46.23.46 1.61-2.3 1.84-2.99 0-.23 0-.46.23-.46s.46-.23.46-.69c.23-.23.46-.69.46-.69l1.15-2.07c.69-1.15 1.15-2.07 1.38-2.07.23-.23 0-.23-.23-.23s-.23-.23.23-.69c.46-.23.69-.69.69-.92 0-.23-.69-1.38-1.84-2.76-.92-.92-1.15-.92-1.38-.69-.69.69-1.38.92-1.61.69-.23-.23-.23-.23 0-.23.46.23.69-.69.23-1.15-.23-.23-.23-.46-.23-.92.23-.23-.23-.69-.92-1.15-.69-.46-1.38-.92-1.61-.92 0 0-.46-.23-.92-.69-1.84-1.38-2.53-1.38-3.68 0-2.53 2.3-10.58 17.02-17.02 31.05-1.61 3.45-2.99 6.44-2.99 6.44-.23.23-1.15.46-2.3.46s-2.76.23-3.45.23c-.92.23-3.22.23-5.29.46-2.07 0-3.91.23-4.37.46-.46.23 0 .23 1.84.23h2.53c-.23.23.46.23 1.15.23.92-.23 1.38 0 1.38.23s.23 0 .23-.23c.46-.46.92-.46 2.53-.46 1.15 0 2.3 0 2.53-.23.23 0 .23 0 .23.46s0 .46.46-.23c.23-.23.69-.46 1.15-.23.23.23.46.23.46.46-.23.23-.23.23-.46.23-.23-.23-.69-.23-.92 0-.92.46-1.84.46-1.61 0 0-.23 0-.23-.23 0-.69.46-1.84.46-2.53 0-.46-.23-.69-.23-.46.23.23.46 0 .46-.23.23s-.46-.23-.69-.23c-.23.46-1.84.46-1.61.23.23-.23.23-.23-.23-.23-.69.46-5.06.46-5.75 0-.23-.23-.23-.23-.23 0 .23.46-1.15.46-1.84 0-.23-.23-.46-.23-.23 0 0 .23 0 .46-.23.69l-.46-.46c0-.46-.23-.46-.92 0-.46.46-.69.46-.46.23.23-.46-.23-.46-.92 0-.23.46-.23.46-.23 0 .23 0 .23-.23 0-.23s-.23.23-.23.23c-.23.46-.23.23-.46 0s-.23-.46-.23 0c0 .23-.23.23-.46 0l-.46-.23c.23.46.23.46-10.35 0-8.97-.46-7.59.46-8.28 1.38-1.15 1.15-.69 3.91 0 5.06.69 1.61.92 1.38 2.99 1.84 1.84.69 6.21 1.15 8.51 1.38l5.75.69c2.07.23 15.41.23 17.48 0 .92-.23 1.38 0 1.38 0 0 .23-.46.46-.92.46-1.38 0-3.22.23-3.22.23 0 .23-12.42 0-13.34-.23-.69 0-.46 0 .46.46.69.23 1.38.46 1.84.46 3.91.92 6.44 1.15 9.66 1.15 2.3.23 4.14.23 4.37.46 0 .23-.23.92-.46 1.61-.46.46-.69 1.15-.46 1.38 0 .23 0 .23-.23.23l-.46.92c0 .23-.46 1.15-.69 1.61-.23.69-.46 1.15-.46 2.53 0 .23-.23.69-.46.92-.46.23-.46.46-.46.69.23 0 0 .46-.23.92 0 .23-.23.69-.23.92 0 0-.23.23-.46.69-.23.23-.46.69-.46.92.23.23 0 .46 0 .46-.23 0-.46 0-.23.23 0 .23-2.07 6.21-2.3 6.21 0 0-.23.23-.23.46-.23.23-.46.69-.23.92 0 .46 0 .46-.23.23-.23 0-.23 0 0 .69 0 .46 0 .46-.23.23-.23 0-.46 0-.23.46 0 .23-.23 1.38-.69 2.76-1.61 4.6-2.07 5.52-2.07 6.21 0 .23-.23.69-.23.69-.23.23-.23.92 0 1.15.23.23 0 1.15-.23 2.3-.46 1.15-.69 2.3-.46 2.3l-.23.23c-.46 0-.46 0-.23.46.23.23.46.46 0 .46-.23 0-.23.23 0 .69 0 .69 0 .92-.23.69-.23-.23-.23 0-.23.46.23.23 0 .92-.23 1.38-.23.46-.46 1.38-.46 2.07-.23.46-.23 1.15-.46 1.38 0 .46-.23 1.38-.69 3.22 0 .69-.23 1.15-.46 1.38-.23.23-.23.46-.23.46.23.23 0 .46-.23.92l-.92 2.07c-.23.92-.46 1.61-.46 1.84-.46.69-.23.46-.92 3.22l-.92 2.76c-.23.23-.23.69-.23.92-.46 2.3-.92 3.68-1.15 4.37-.23.23-.46.46-.23.46 0 0 0 .46-.23.69-.23.46-.46 1.15-.46 1.61-.23 1.15-.46 2.53-.92 3.45 0 .46-.23.69-.23.92 0 0 0 .23-.23.46 0 .23-.23.92-.23 1.61 0 .46-.23.46-.46.46-.23-.23-.23 0 0 .46s.23.69 0 .69c-.23.23-.23.46-.23.69 0 .23 0 .46-.23.69-.46.23-.46.69-.23 1.15.23.23.23.46 0 .69-.23 0-.46.46-.46.92-.23.92-.69 4.6-.92 4.6 0 0 0 .23-.23.69-.46 2.76-.69 3.68-.69 4.6 0 .46-.23.92-.23 1.15 0 .23-.23.69-.23 1.15 0 .46-.23.92-.46 1.15-.23 0-.23.23 0 .46s.23.46.23.69c-.46.23-1.15 5.75-1.38 9.43 0 1.15-.23 2.07-.23 2.07-.23 0-.23 3.45-.46 7.36 0 6.67 0 7.82.92 13.8.92 7.13 1.38 8.51 2.76 9.43 1.15.69 4.14.46 4.14-.46 0-.23.23-.46.23-.23.46.46 1.15.23 1.15 0s0-.46.23-.46.23-.23.46-.69c0-.23 0-.69.23-.92-.46.23-.69.23-.69-1.38-.23-.92-.23-2.07 0-2.53v-.92c-.23 0-.23-1.15-.23-2.53.23-1.61.23-2.99 0-3.45 0-.46 0-.92.23-1.15.23-.46.23-.46 0-.23-.69.23-.23-10.81.23-11.5.46-.46.46-.46 0-.23-.23.23-.23.23-.23 0 .23-.23.46-2.3.46-4.6.23-2.3.46-4.37.46-4.6.23-.46.46-1.15.46-1.84 0-.69.23-2.07.23-2.99.23-.92.23-2.07.46-2.53 0-.23 0-.92.23-1.15.23 0 .23-.69.23-1.15 0-.46 0-.92.23-.92 0 0 .23-.46 0-.69 0-.46 0-.92.23-1.15 0-.46.23-.92.23-1.38.23-.46.23-1.61.46-2.53.23-1.15.46-2.07.46-2.07.23-.23.23-.92.46-1.61 0-.69.23-1.84.46-2.53.23-.69.23-1.61.23-1.84 0-.23.23-.46.23-.46.23 0 .23-.46.46-1.15 0-.46.23-1.15.69-1.38.46-.23.46-.23-.23-.23-.46.23-.46.23-.23 0 .23-.46.23-.92.23-1.61.23-.46.23-.92.46-.92 0 0 .23-.46.23-.69 0-.92.23-2.76.46-2.99 0-.23.23-.69.46-1.38 0-.46.23-1.38.23-1.61.23-.46.23-.46 0-.23s-.46.46-.46.23.23-.46.69-.92c.23-.23.23-.46 0-.46-.23.23-.23.23-.23-.23 0-.23.23-.46.46-.23.46 0 .46 0 .23-.46s-.23-.92 0-1.15c.23-.46.23-.46 0-.23-.23 0-.23 0-.23-.23.23-.46.46-.46.46-.46.23.23.46 0 .46 0 0-.46-.46-.46-1.15-.46v-.46c.23-.23.23-.46.46-.23.23.46.23.23.46 0 0-.23 0-.46-.23-.46 0 0-.23-.23-.23-.46s.23-.46.46-.46.46 0 .46-.23c0-.46 0-.46-.23-.23-.23 0-.23 0 0-.46.69-.69.92-1.15.46-.92-.46.23-.69-.69-.46-1.15.23-.46.46-.46.46-.46.23 0 .46-.46.92-1.15.46-1.15.46-1.38.23-1.38-.23-.23-.46-.46-.46-.92v-.69l.23.69c.46.92.69.92.46-.23 0-.23.23-.69.23-.69.23 0 .23-.23 0-.46s-.23-.46.23-.46c.23-.23.46-.46.46-.69-.23-.23 0-.46 0-.46.46 0 .46-.23 0-.46-.46-.46-.23-1.38.46-1.61.46-.23.46-.23.23-.69-.23-.23-.23-1.61 0-1.61.92.23 1.15 0 .69-.46-.23-.23-.23-.46 0-.46s.46-.23.46-.23c0-.23-.23-.46-.46-.23s0-1.15.46-1.61c.23-.23.46-.23.69-.23.23 0 .23 0-.23-.23-.46-.46 0-2.07.46-1.61.46.23.46 0 .23-.23-.46-.46-.23-1.15.23-1.15.23 0 .23 0 0 .23 0 .23 0 .23.23.23.23-.23.23-.46 0-.92-.23-.92 0-2.07.46-2.07.23 0 .23-.23 0-.23 0-.23 0-.69.23-.92.23-.23.23-.46.23-.69-.23-.23 0-.23 0-.23.23.23.46 0 .46-.69 0-.46.23-1.15.46-1.61.23-.23.23-.69 0-.69l.23-.23c.23-.23.23-.69.23-.69-.23 0 0-.23.23-.23s.23-.23.23-.46c-.23-.23 0-.46.23-.69 0-.23.23-.46 0-.46 0 0 0-.23.23-.69.23-.23.46-.92.46-1.15 0-.23.92-2.3 1.61-4.6.92-2.3 1.61-4.37 1.61-4.83.23-.46.23-.92.46-.92.23.23.92-1.84.69-2.3-.23-.46 0-.69.23-.46.23.23.23.23.23-.46-.23-.23 0-.46 0-.46.46.23.92-.92.46-1.38 0-.23 0-.23.23-.23s.46-.23.23-.46c0-.23 0-.46.23-.46.46-.23 1.38-3.22 1.38-4.37 0-.46.23-.92.23-.69.23 0 .46 0 .46-.23.46-.69 1.61-3.45 1.84-4.14v-.92c.23-.92 4.83-1.61 5.06-.92.23.69.23 1.15 0 .92-.23-.23-.23 0-.23.46 0 .23-.23.92-.46 1.38-.46.23-.92 1.15-1.15 1.84-.46.92-.46 1.15 0 1.38.46.23.46.23 0 .23-.23 0-.46.23-.69.46 0 .23 0 .92-.23 1.15-.23.46-.23.92-.23.92s-.23.69-.69 1.15c-.92 1.38-1.15 1.61-.69 1.61 0 0 .23-.23.46-.69 0-.23.23-.46.23-.46.23.23 0 .69-.46 1.38-.46.46-.69 1.38-.46 1.61 0 .46 0 .69-.23.46-.23 0-.46 0-.46.23 0 .46-.23.92-.23 1.15-.23.23-.23.46-.23.69l-.46.46c-.23 0-.23.23 0 .46.46.23.23.46-.23.46-.23 0-.23.46-.23 1.15 0 1.15 0 1.15-.69.69-.46-.23-.46-.23-.23.23s.46.46 0 .69c-.23.23-.23.46.23.69.23.46.23.46-.23.46-.23-.23-.46.23-.69 1.15-.23.69-.46 1.15-.69 1.15-.23-.23-.23 0 0 .46s0 .69-.23.46c-.23-.23-.23 0-.23.46.23.46.23.69 0 .46-.46-.46-.92.92-.69 1.61.23.69.23.69-.23.46-.23-.46-.46-.23-.23.23s0 .69-.23.46c-.23-.23-.46 0-.23.23.23.92 0 1.84-.46 1.61-.23-.23-.23 0-.23.23.23.46 0 .69-.23.46-.69-.23-.69 0 0 .46.46.46.46.46 0 .46-.23 0-.46 0-.69-.23v.69c-.46.46-.46 1.15-.23.92.23 0 .46 0 .46.23s0 .46-.46.46c-.23 0-.69.23-.69.46 0 .46.23.46.46 0 0-.23.23-.23.23 0s-.23.46-.23.46c-.23.23-.23.46-.23.46 0 .23 0 .46-.23.46s-.23 0-.23.46c.23.23 0 .23 0 .23-.46-.23-1.38 2.53-1.15 2.99 0 .23 0 .23-.23.23-.23-.23-.46-.23-.46 0v.69c0 .23-.23.69-.46.92 0 .23 0 .23.23.23-.69.69-.92 1.15-.23.69.23 0 0 .23-.23.46-.23.46-.46.92-.46 1.15 0 .23-.23.46-.46.46 0 0-.23.46-.23 1.15 0 .46 0 .92-.23.92-.23-.23-.23 0-.23.46.23.46.23.92 0 .69-.23-.23-1.15 2.76-.92 2.99.23.23.23.23 0 .23-.46-.23-.92 1.61-.69 2.07-.46-.23-1.15 2.76-.92 3.22 0 .23 0 .46-.23.23s-.92 1.84-1.15 3.68c0 .46-.23.69-.23.69s0 .23-.23.69c0 .46-.23 1.15-.46 1.61-.23.46-.23 1.15-.23 1.38 0 .23-.23.46-.23.46-.23.23-.46.46-.46.69l-.69 3.22c-.23.46-.23.92-.23 1.38 0 .23 0 .23-.23.23 0-.23-.23 0-.23.23s-.23 1.15-.46 2.07c-.23.92-.46 1.84-.46 2.3 0 .23-.23.69-.46.92-.46.23-.46.46-.23.69.46.23.46.23.23.23-.46 0-.46.23-.46 2.07-.23.69-.23 1.15-.46 1.38-.23.23-.46.92-.46 1.61 0 .69-.23 1.38-.46 1.61-.23.23-.23.46 0 .69 0 0 .23.46 0 .69-.23.23-.23.69-.23 1.15 0 .23 0 .46-.46.23-.23 0-.23 0-.23.46.46.46 0 2.53-.23 2.3-.23 0-.23.23-.23.69.23.46 0 .92-.23 1.38-.23.23-.23.46 0 .46.23.23.23.46-.23 1.15-.23.46-.23.92 0 1.15 0 0 0 .46-.23 1.15-.46.46-.46.92-.23.92.23.23.23.46 0 .92-.23.23-.46 1.15-.46 1.61 0 .69-.23 1.61-.46 1.84-.23.46-.23.69 0 .92.46 0 .23 1.61-.23 1.61-.23 0-.23.69-.23 1.61 0 .69 0 1.38-.23 1.38 0 0-.23.69-.23 1.38 0 .92 0 1.61-.46 1.84-.23.23-.23.46-.23.46.23 0 .23.92.23 2.76 0 1.84-.23 3.22-.23 3.68 0 .46-.23.46-.69.23.46.46.46.92.23 4.6 0 2.3-.23 4.37-.23 4.6-.23.23-.23.46 0 .23s.46 0 .46.69c0 .46-.23.92-.46.92 0-.23-.23 0-.23.23s.23.46.46.23c.23 0 .23.69.23 2.07-.23 1.15 0 1.84 0 1.61.23 0 .46-.46.46-1.15 0-.46 0-.69.23-.69s.92-4.37 1.61-12.42c.69-5.29 2.53-17.25 3.68-23.92 1.15-5.75 4.6-20.7 5.29-21.85 0-.23.23-.69.23-.69v-.46c.23-.23.23-.69.23-1.15.23-.69.23-1.38.46-1.61l.69-2.07c0-.23.23-.46.23-.69.23-.23.23-.46 0-.69 0-.23 0-.46.23-.46.23-.23.23-.46.23-.69 0-.23 0-.46.23-.69.23 0 .23-.46 0-.69 0-.46 0-.69.23-.69s.23-.23.23-.46c0-.46 0-.69.23-.69s.23-.23.23-.46c-.23-.23-.23-.46 0-.69.23 0 .23-.23.23-.46-.23-.23 0-.69.23-.69 0 0 .23-.46 0-.69 0-.23 0-.46.23-.46s.46-.23.23-.23c0-.23.23-.92.46-1.38.23-.46.23-.92.23-1.38-.23-.23 0-.46.23-.46s.23 0 .23-.46c-.23-.23 0-.46 0-.46.23-.23.23-.46.23-.46 0-.23 0-.46.23-.46.23-.23.23-.46.23-.69-.23-.23 0-.46 0-.46.23 0 .46-.69.46-1.15 0-.46.23-.92.46-.92v-.69c0-.23 0-.46.23-.69.23 0 .46-.69.46-1.15 0-.46 0-.92.23-.92s.23-.23 0-.69c0-.46 0-.69.23-.46.23.23.46.23.23-.23v-.69c.23 0 .23-.23.23-.46.23 0 .23-.46.46-.92s.46-1.15.23-1.38c0-.23 0-.46.23-.46s.23-.23.23-.46v-.46c.46 0 1.38-3.22 1.38-3.45-.23-.23 0-.23.23-.23 0 0 .23-.23 0-.46 0-.23 0-.46.23-.46s.23-.23.23-.46c-.23-.23 0-.46.23-.46 0 0 .23-.23 0-.46 0-.23 0-.46.23-.69.23 0 .23-.23 0-.46-.46-.23-.46-.23 0-.23s.92-1.15 1.15-2.3c0-.23.23-.69.46-1.15.23-.23.23-.69.23-.92 0-.23 0-.23.23-.23s.23-.23 0-.69c0-.46 0-.69.23-.46.23.23.46 0 .23-.46s0-.69.23-.46c.23.23.23 0 0-.46 0-.46 0-.69.23-.46.23 0 .46 0 .46-.23s-.23-.23-.46-.23l-.23-.23c0-.23.23-.23.46-.23.46.23.69-.23 0-.69-.23-.46-.23-.46.23-.23.69.23.69-.23.23-.69-.23-.46-.23-.46 0-.23.46.23 1.15-.69.92-1.15-.23-.23 0-.23.23-.23 0 0 .23-.23 0-.46 0-.23 0-.46.23-.46s.23-.23.23-.69c-.23-.46-.23-.69.23-.46.23.23.23 0 0-.23 0-.23 0-.46.23-.46s.23-.23.23-.46c-.23-.23 0-.46 0-.46.23 0 .23-.23.23-.69-.23-.23 0-.69.46-1.15.46-.69.69-1.15.69-1.38 0-.23.23-.69.46-.69.23-.23.23-.46.23-.69-.23-.23 0-.46 0-.46.23 0 .23-.23.23-.69-.23-.46-.23-.46.23-.46.23.23.23.23.23-.23-.23-.23-.23-.46 0-.46s.23-.23.23-.46c-.23-.23 0-.46 0-.46.23 0 .46 0 .46-.23-.23-.23.23-.69.46-1.15.23-.69.46-1.15.23-1.15 0 0 0-.23.23-.46.23 0 .23-.46.23-.46-.23-.23 0-.23.23-.23s.23-.23.23-.46c-.23-.23 0-.46 0-.46.23 0 .46-.23.23-.46 0-.23 0-.46.23-.46s.23-.23.23-.46c-.23-.23 0-.69.23-1.15.46-.46 1.38-.69 5.75-1.15 11.73-1.38 30.13-2.53 31.28-1.84.23.23.46 0 .92-.23.23 0 .23-.23.23 0-.23.23.23.46 1.38.23h1.38c-.23-.23-1.84-.46-3.45-.46-.92-.23-1.84-.23-1.84-.46-.23 0-.46 0-.92.23-.69.23-.69.23-.69 0 .23-.23 0-.23-.23-.23s-.46 0-.46.23c.23 0 0 .23-.46.23-.23 0-.46-.23-.23-.23 0-.23-.23-.23-.69-.23-.46 0-.92 0-.92.23 0 .46 0 .46-.23 0s-12.65-.46-12.42.23c.23.23 0 .23-.23 0s-.92-.46-1.38-.23h-2.07c-.92 0-10.58.69-11.27.92h-2.53l.92-.46c.46-.23.92-.23 1.15-.23h.46c0-.46 1.15-.46 5.29-.69 1.15 0 2.07 0 2.07-.23s2.53 0 2.99.23c.23 0 .46 0 .46-.23.23 0 .46-.23.69-.23v.23c-.23.23 0 .23.46 0 .92-.46 3.22-.69 3.91-.23.23.23.46.23.46 0 0 0 1.38-.23 3.22-.23 2.3 0 3.22 0 2.99.23 0 .23 0 .23.46 0 .46-.46.69-.46.69-.46.46.23 4.37.46 4.6 0h.46c.23.23 1.15.23 2.07.23 3.91.23 7.59.69 7.82.69.46.46 1.61.23 1.84-.23.23-.23.23-.23.23.23s.69.69 1.15 0c.46-.23.46-.23.23.23-.23.23 0 .23.92 0 .69 0 1.15 0 1.38.46.23.23.46.23.92 0 .23 0 .69 0 .92.23.23.23.23.23.23 0-.23-.46-.23-.46.46 0 .46 0 .69.23.92.23.23 0 .23 0 .23.23s.23.23.69 0c.23 0 .46 0 .46.23s.23.46.46.46c0 0 .23-.23.23-.69 0-.46 0-.46.46.23.23.23.92.46 1.61.46.69.23 1.38.23 1.61.46.23.23.69.23.69.23.23-.23.23 0 .23 0 0 .46 1.15.92 1.15.46 0-.23.23-.23.46 0 .23.46.69.69 1.15.69.23 0 .69.23 1.15.69.46.92 1.15 1.15.69.46 0-.23.46 0 .92.69.69.69 1.38 1.15 1.38 1.15.92 0 2.07-2.07 2.3-4.83.23-1.61 0-1.84-.69-2.99zm-61.41-17.25c-.23-.23-.23.23-.23 1.15 0 .23 0 .46-.23.46-.23-.23-.23 0-.23.23.23.46 0 .46-.23.23s-.23 0-.23.23c.23.46 0 .46-.23.46 0 0-.23.23 0 .23.23.46-.46 2.07-.92 1.84-.23 0-.23 0 0 .23.23.46-.23 1.61-.69 1.38-.23-.23-.23 0 0 .23 0 .23 0 .46-.23.46 0-.23-.23 0-.46 0 0 .23-.46.46-.92.46-.69 0-.69-.23-.46-.46.23-.23.23-.46.23-.46-.23 0-.23-.23 0-.23.46-.46 1.38-2.3 1.38-2.99 0-.23.23-.69.69-.92.23 0 .23-.23 0-.23s-.23-.23-.23-.23c0-.23.23-.23.46-.23s.46 0 .23-.69c0-.46.23-.69.23-.46.23 0 .46-.23.23-.46 0-.46 0-.69.23-.69 0 .23.23.23.46 0 0-.23 0-.46-.23-.46s.23-.69.92-1.38l1.15-2.3c0-.46.23-.92.46-1.15.23-.23.46-.23.23-.23 0 0 .23-.46.46-1.15.46-.46.69-1.15.69-1.61 0-.46.23-.69.46-.69s.23-.23.23-.23c-.23-.23 0-.46.23-.92.23-.23.23-.69.23-.92 0-.46 0-.46.23-.23.23.46.46.23.23-.23 0-.23.46-.92.92-1.61.46-.69.69-1.38.69-1.61-.23 0-.23-.23 0-.23s.46-.23.46-.46c0-.46.46-.69.69-.92.69-.46.92-.69.46-1.15-.23-.46-.23-.46.23-.46 0 .23.23 0 .23-.23 0-.46.23-.69.46-.69s.23-.23 0-.23c0-.23.23-.46.46-.69.92-.69 1.38-1.84 1.15-2.3 0-.46 0-.46.46-.23.46 0 .69.23.69.46s.23.23.23-.23c.23-.23.46-.23.46.23s-.92 1.38-1.38 1.38c-.23 0-.23.23 0 .46s.23.46 0 .46l-.92 1.38c-.23.69-.69 1.15-.92 1.15-.23 0-.23.23-.23.46.23.46 0 .46-.23.23-.46-.23-.46-.23 0 .23.23.46.23.69-.23.92-.46.69-2.07 3.68-1.84 3.91h-.23c-.23 0-.23.23-.23.46v.46c-.23-.23-.46.23-.69.92-.23.69-.69 1.38-.69 1.38-.23 0-.23.23-.23.46.23.23-.23.69-.69 1.15-.46.46-.69 1.38-.69 1.61 0 .46-.23.92-.46.92-.23.23-.23.23 0 .69.23.23.23.46 0 .23-.46-.23-.46 0-.46.23.23.46.23.46 0 .46-.46-.23-.69 0-.92 1.84-.23.69-.46.92-.69.92zm-5.75 19.55c0 .23-1.15.46-2.53.46-2.07.23-2.3.23-1.61-.23.46-.46.69-.46.69-.23.23.23.23.23.46.23 0-.23.69-.46 1.61-.46.92 0 1.61.23 1.38.23zm5.52-14.49c0 .46-.23.92-.23.92 0 .23-.23.23-.46.23-.46-.23-.46-.23 0 .23s.23.69-.23 0c-.69-.46-.46-1.15 0-.92.46.23.46.23.23-.23s-.23-1.61 0-1.38c.23.23.23.46.23.69 0 .46 0 .46.46.23.23-.46.23-.46 0 .23zm-2.76 3.45c-.23-.23-1.84-.23-1.61.23.23.46 0 .46-.69-.23-.23-.23-.46-.46-.23-.46h1.15c.69-.23 1.15 0 1.38.23.46.46.46.46 0 .23zm40.48 10.81c-.46-.46-1.15-.46-1.15-.23s.23.46.69.46c.69 0 .92 0 .46-.23zm-36.34-17.71s0-.23.23-.46c.46 0 .46 0 .46.46-.23.46-.46.46-.69 0zm-32.2 76.36c.23 0 0 .23-.23.46-.23 0-.46 0-.46-.23 0-.46.46-.69.69-.23zm4.37-13.57c-.23 0-.23 0-.23.23v.46c.23 0 .23-.23.46-.46 0-.23 0-.23-.23-.23zm12.42-23.46c0-.23 0-.46-.23-.46s-.23.23-.23.46c0 0 0 .23.23.23s.23-.23.23-.23zm-18.63 16.56c-.23 0-.46-.23-.46-.46-.23-.46-.23-.46.23-.23.23.23.23.46.23.69zm13.11-2.53c-.23 0-.46 0-.23-.23s.69-.23.69.23h-.46zm17.94-47.84c-.23.46-.46.46-.46 0l.46-.46v.46zm-38.41 147.2c-.23 0-.46 0-.46.23-.23 0 0 .23.23.23.46 0 .46-.23.23-.46zm5.75-94.99v.46c.23 0 .23-.23.46-.46 0 0 0-.23-.23-.23l-.23.23zm2.53 21.39c0 .23.23.23.23.23.23 0 .23 0 .23-.23s-.23-.23-.23-.23c-.23 0-.23 0-.23.23zm31.97-77.97c-.23.46-.23.46-.23.23s0-.46.23-.69l.23-.23c0 .23 0 .46-.23.69zm-33.81 55.66s.23 0 .23-.23v-.23c-.23 0-.23 0-.46.23 0 .23 0 .23.23.23zm6.21 8.74c.23-.23.23-.46.23-.69-.23-.23-.23-.23-.23.23v.46zm-13.8 83.49v.46c.23-.23.23-.46.23-.69-.23-.23-.23 0-.23.23zm97.06-128.11h.46c0-.23-.23-.23-.46 0z" fill="#A4FF00"/></svg>