<svg width="134" height="40" viewBox="0 0 134 40" fill="none" xmlns="http://www.w3.org/2000/svg">
<path fill-rule="evenodd" clip-rule="evenodd" d="M107.066 24.1651H107.945V12.9151H107.066V24.1651ZM104.195 23.2276C104.742 22.5001 105.015 21.5186 105.015 20.2833V20.1588C105.015 18.8843 104.744 17.8882 104.202 17.1705C103.665 16.4527 102.923 16.0938 101.976 16.0938C100.892 16.0938 100.064 16.5162 99.4927 17.3609L99.4487 16.2403H98.6357V27.212H99.5073V23.169C100.083 23.9307 100.914 24.3116 101.998 24.3116C102.916 24.3116 103.648 23.9503 104.195 23.2276ZM103.514 17.7344C103.929 18.3204 104.136 19.1187 104.136 20.1295C104.136 21.2476 103.929 22.1021 103.514 22.6929C103.104 23.2789 102.53 23.5718 101.792 23.5718C101.26 23.5718 100.799 23.4522 100.408 23.213C100.018 22.9737 99.7173 22.627 99.5073 22.1729V18.3716C99.7124 17.8785 100.008 17.5025 100.394 17.2437C100.779 16.9849 101.241 16.8555 101.778 16.8555C102.52 16.8555 103.099 17.1485 103.514 17.7344ZM115.335 24.1651C115.247 23.9161 115.191 23.5474 115.167 23.0591C114.859 23.4595 114.466 23.7696 113.987 23.9893C113.514 24.2042 113.011 24.3116 112.479 24.3116C111.717 24.3116 111.099 24.0992 110.625 23.6744C110.157 23.2496 109.922 22.7125 109.922 22.0631C109.922 21.2916 110.242 20.6812 110.882 20.232C111.526 19.7828 112.422 19.5582 113.57 19.5582H115.159V18.6573C115.159 18.0909 114.983 17.6465 114.632 17.3243C114.285 16.9971 113.777 16.8336 113.108 16.8336C112.498 16.8336 111.993 16.9898 111.592 17.3023C111.192 17.6148 110.992 17.9908 110.992 18.4302L110.113 18.4229C110.113 17.793 110.406 17.2486 110.992 16.7896C111.578 16.3257 112.298 16.0938 113.152 16.0938C114.036 16.0938 114.732 16.316 115.24 16.7603C115.752 17.1998 116.016 17.815 116.031 18.606V22.356C116.031 23.1226 116.111 23.6964 116.272 24.0772V24.1651H115.335ZM112.581 23.5352C113.167 23.5352 113.689 23.3936 114.148 23.1104C114.612 22.8272 114.949 22.4488 115.159 21.9752V20.232H113.592C112.718 20.2418 112.034 20.4029 111.541 20.7154C111.048 21.023 110.801 21.4478 110.801 21.9898C110.801 22.4341 110.965 22.8028 111.292 23.0958C111.624 23.3887 112.054 23.5352 112.581 23.5352ZM123.084 16.2403L120.77 22.9053L118.309 16.2403H117.349L120.337 24.0992L119.949 25.1685C119.764 25.6861 119.537 26.0499 119.268 26.2598C119.004 26.4747 118.658 26.5821 118.228 26.5821L117.774 26.5381L117.781 27.2632C118.021 27.3316 118.245 27.3658 118.455 27.3658C119.363 27.3658 120.035 26.8848 120.469 25.9229L120.645 25.5128L124.029 16.2403H123.084ZM52.7446 15.9913L53.5796 15.2003C52.813 14.4727 52.0269 13.9454 51.2212 13.6182C50.4155 13.2862 49.5562 13.1202 48.6431 13.1202C47.5151 13.1202 46.5044 13.3692 45.6108 13.8672C44.7173 14.3604 44.0142 15.0464 43.5015 15.9253C42.9888 16.8043 42.7324 17.754 42.7324 18.7745C42.7324 20.1465 43.1792 21.355 44.0728 22.4C45.2349 23.7574 46.812 24.4361 48.8042 24.4361C50.4448 24.4361 51.7534 23.9478 52.73 22.9712C53.7114 21.9898 54.207 20.6666 54.2168 19.0015H49.5732V20.0416H53.0083C52.8667 21.0377 52.4126 21.8482 51.646 22.4732C50.8794 23.0982 49.9419 23.4107 48.8335 23.4107C47.9204 23.4107 47.0806 23.2032 46.314 22.7881C45.5474 22.3682 44.9468 21.7945 44.5122 21.067C44.0776 20.3345 43.8604 19.563 43.8604 18.7525C43.8604 17.9615 44.0703 17.212 44.4902 16.504C44.9102 15.7911 45.501 15.2271 46.2627 14.8121C47.0293 14.397 47.835 14.1895 48.6797 14.1895C49.3584 14.1895 50.0542 14.3433 50.7671 14.6509C51.4849 14.9537 52.144 15.4004 52.7446 15.9913ZM62.918 17.3243C62.1123 16.4356 61.0967 15.9913 59.8711 15.9913C58.6406 15.9913 57.6226 16.438 56.8169 17.3316C56.0845 18.1421 55.7183 19.0992 55.7183 20.2027C55.7183 21.316 56.104 22.2901 56.8755 23.1251C57.6519 23.9551 58.6504 24.3702 59.8711 24.3702C61.0869 24.3702 62.0806 23.9551 62.8521 23.1251C63.6284 22.2901 64.0166 21.316 64.0166 20.2027C64.0166 19.0943 63.6504 18.1348 62.918 17.3243ZM57.6812 17.9395C58.2915 17.3096 59.0215 16.9947 59.8711 16.9947C60.7158 16.9947 61.4434 17.3096 62.0537 17.9395C62.6689 18.5694 62.9766 19.3311 62.9766 20.2247C62.9766 20.8008 62.8374 21.3379 62.5591 21.836C62.2808 22.334 61.9048 22.7198 61.4312 22.9932C60.9575 23.2618 60.4375 23.3961 59.8711 23.3961C59.3047 23.3961 58.7847 23.2618 58.311 22.9932C57.8374 22.7198 57.4614 22.334 57.1831 21.836C56.9048 21.3379 56.7656 20.8008 56.7656 20.2247C56.7656 19.3311 57.0708 18.5694 57.6812 17.9395ZM69.7002 15.9913C70.9258 15.9913 71.9414 16.4356 72.7471 17.3243C73.4795 18.1348 73.8457 19.0943 73.8457 20.2027C73.8457 21.316 73.4575 22.2901 72.6812 23.1251C71.9097 23.9551 70.916 24.3702 69.7002 24.3702C68.4795 24.3702 67.481 23.9551 66.7046 23.1251C65.9331 22.2901 65.5474 21.316 65.5474 20.2027C65.5474 19.0992 65.9136 18.1421 66.646 17.3316C67.4517 16.438 68.4697 15.9913 69.7002 15.9913ZM69.7002 16.9947C68.8506 16.9947 68.1206 17.3096 67.5103 17.9395C66.8999 18.5694 66.5947 19.3311 66.5947 20.2247C66.5947 20.8008 66.7339 21.3379 67.0122 21.836C67.2905 22.334 67.6665 22.7198 68.1401 22.9932C68.6138 23.2618 69.1338 23.3961 69.7002 23.3961C70.2666 23.3961 70.7866 23.2618 71.2603 22.9932C71.7339 22.7198 72.1099 22.334 72.3882 21.836C72.6665 21.3379 72.8057 20.8008 72.8057 20.2247C72.8057 19.3311 72.498 18.5694 71.8828 17.9395C71.2725 17.3096 70.5449 16.9947 69.7002 16.9947ZM83.6528 16.1963H82.6201V17.5806C82.1416 17.0142 81.6436 16.6089 81.126 16.3648C80.6133 16.1158 80.0591 15.9913 79.4634 15.9913C78.7456 15.9913 78.062 16.1768 77.4126 16.5479C76.7681 16.919 76.2627 17.4244 75.8965 18.064C75.5303 18.6988 75.3472 19.3848 75.3472 20.1221C75.3472 20.8594 75.5229 21.5357 75.8745 22.1509C76.2261 22.7662 76.7241 23.2569 77.3687 23.6231C78.0132 23.9844 78.7017 24.1651 79.4341 24.1651C80.0591 24.1651 80.6499 24.0357 81.2065 23.7769C81.7632 23.5132 82.2344 23.1373 82.6201 22.649V23.0591C82.6201 23.938 82.5176 24.5753 82.3125 24.9708C82.1074 25.3663 81.7632 25.6934 81.2798 25.9522C80.8013 26.2159 80.2129 26.3477 79.5146 26.3477C78.8066 26.3477 78.2134 26.2208 77.7349 25.9669C77.2563 25.7129 76.8657 25.3223 76.563 24.795H75.4497C75.7378 25.42 76.0527 25.8936 76.3945 26.2159C76.7363 26.543 77.1782 26.8018 77.7202 26.9922C78.2671 27.1876 78.8823 27.2852 79.5659 27.2852C80.4985 27.2852 81.2969 27.0875 81.9609 26.692C82.625 26.2964 83.0913 25.7325 83.3599 25.0001C83.5552 24.4825 83.6528 23.6646 83.6528 22.5464V16.1963ZM77.9766 17.4048C78.4746 17.1216 79.0142 16.98 79.5952 16.98C80.1519 16.98 80.6719 17.1168 81.1553 17.3902C81.6387 17.6636 82.0122 18.0372 82.2759 18.5108C82.5396 18.9795 82.6714 19.5142 82.6714 20.1148C82.6714 21.0377 82.3833 21.7823 81.8071 22.3487C81.2358 22.9151 80.479 23.1983 79.5366 23.1983C78.604 23.1983 77.8447 22.9127 77.2588 22.3414C76.6729 21.7701 76.3799 21.0474 76.3799 20.1734C76.3799 19.5972 76.5215 19.0626 76.8047 18.5694C77.0879 18.0713 77.4785 17.6832 77.9766 17.4048ZM85.6963 13.1202H86.7217V24.1651H85.6963V13.1202ZM96.4263 21.9752L95.562 21.5211C95.2495 22.0435 94.959 22.4219 94.6904 22.6563C94.4219 22.8907 94.0947 23.0787 93.709 23.2203C93.3281 23.3619 92.9351 23.4327 92.5298 23.4327C91.6899 23.4327 90.9844 23.1373 90.4131 22.5464C89.8418 21.9507 89.5464 21.189 89.5269 20.2613H96.6899C96.6802 19.1724 96.3872 18.2642 95.811 17.5367C95.0005 16.5064 93.9165 15.9913 92.5591 15.9913C91.2407 15.9913 90.1885 16.4942 89.4023 17.5001C88.7822 18.2911 88.4722 19.192 88.4722 20.2027C88.4722 21.2769 88.8384 22.2413 89.5708 23.0958C90.3032 23.9454 91.3188 24.3702 92.6177 24.3702C93.2036 24.3702 93.7285 24.2823 94.1924 24.1065C94.6562 23.9258 95.0737 23.6646 95.4448 23.3228C95.8159 22.981 96.1431 22.5318 96.4263 21.9752ZM94.9614 18.064C95.2251 18.3912 95.4253 18.8282 95.562 19.3751H89.6294C89.8394 18.6426 90.1494 18.0933 90.5596 17.7271C91.1211 17.2242 91.7925 16.9727 92.5737 16.9727C93.0474 16.9727 93.499 17.0728 93.9287 17.273C94.3584 17.4732 94.7026 17.7369 94.9614 18.064Z" fill="white"/>
<path d="M10 30.7898V9.21269C10 8.45974 10.4365 7.80888 11.07 7.5L23.5513 19.9976L11.065 32.5C10.4342 32.1902 10 31.5408 10 30.7898ZM27.5111 23.9623L13.8635 31.8519L24.627 21.0745L27.5111 23.9623ZM31.7533 18.4886C32.2072 18.8365 32.5 19.3847 32.5 20.0013C32.5 20.6086 32.2161 21.1494 31.7738 21.4979L28.8749 23.1739L25.7026 19.9976L28.8727 16.8233L31.7533 18.4886ZM13.8715 8.15118L27.5089 16.0349L24.627 18.9205L13.8715 8.15118Z" fill="white"/>
</svg>
