<svg width="30" height="31" fill="none" xmlns="http://www.w3.org/2000/svg"><path d="m23.343 30.98-16.657.016C3.02 30.999.02 28.004.016 24.339L0 7.681c-.003-3.664 2.992-6.665 6.656-6.67L23.314.997c3.665-.003 6.666 2.992 6.67 6.656L30 24.31c.004 3.666-2.992 6.667-6.657 6.67z" fill="url(#a)"/><path d="m23.343 30.98-16.657.016C3.02 30.999.02 28.004.016 24.339L0 7.681c-.003-3.664 2.992-6.665 6.656-6.67L23.314.997c3.665-.003 6.666 2.992 6.67 6.656L30 24.31c.004 3.666-2.992 6.667-6.657 6.67z" fill="url(#b)"/><path d="M15 21.826a5.837 5.837 0 0 1-5.83-5.83 5.837 5.837 0 0 1 5.83-5.83 5.837 5.837 0 0 1 5.83 5.83 5.837 5.837 0 0 1-5.83 5.83zm0-9.994a4.17 4.17 0 0 0-4.164 4.164A4.17 4.17 0 0 0 15 20.161a4.17 4.17 0 0 0 4.165-4.165A4.17 4.17 0 0 0 15 11.832zM21.247 10.999a1.25 1.25 0 1 0 0-2.499 1.25 1.25 0 0 0 0 2.499z" fill="#fff"/><path d="M19.997 26.824h-9.995a5.837 5.837 0 0 1-5.83-5.83v-9.995a5.837 5.837 0 0 1 5.83-5.83h9.995a5.837 5.837 0 0 1 5.83 5.83v9.995a5.837 5.837 0 0 1-5.83 5.83zm-9.995-19.99A4.17 4.17 0 0 0 5.838 11v9.995a4.17 4.17 0 0 0 4.164 4.164h9.995a4.17 4.17 0 0 0 4.164-4.164v-9.995a4.17 4.17 0 0 0-4.164-4.165h-9.995z" fill="#fff"/><defs><radialGradient id="a" cx="0" cy="0" r="1" gradientUnits="userSpaceOnUse" gradientTransform="translate(11.152 31.017) scale(37.3961)"><stop stop-color="#FD5"/><stop offset=".328" stop-color="#FF543F"/><stop offset=".348" stop-color="#FC5245"/><stop offset=".504" stop-color="#E64771"/><stop offset=".643" stop-color="#D53E91"/><stop offset=".761" stop-color="#CC39A4"/><stop offset=".841" stop-color="#C837AB"/></radialGradient><radialGradient id="b" cx="0" cy="0" r="1" gradientUnits="userSpaceOnUse" gradientTransform="matrix(24.8311 0 0 16.5449 4.827 .621)"><stop stop-color="#4168C9"/><stop offset=".999" stop-color="#4168C9" stop-opacity="0"/></radialGradient></defs></svg>