<svg width="36" height="47" fill="none" xmlns="http://www.w3.org/2000/svg"><path d="M13.207 0c10.006 5.766 8.804 22.01 8.804 22.01s4.402-1.467 4.402-8.07c5.252 3.045 8.804 8.899 8.804 15.407 0 9.725-7.884 17.608-17.608 17.608C7.883 46.955 0 39.072 0 29.347 0 15.04 13.207 12.106 13.207 0zm2.855 40.888a6.603 6.603 0 0 0 3.195-12.814c-8.543-2.13-9.614-6.934-9.614-6.934s-4.26 17.086 6.419 19.748z" fill="url(#a)"/><defs><linearGradient id="a" x1="44.608" y1="50.477" x2="-11.739" y2="-5.869" gradientUnits="userSpaceOnUse"><stop stop-color="#00DB59"/><stop offset="1" stop-color="#1DCCFD"/></linearGradient></defs></svg>