<svg width="338" height="338" fill="none" xmlns="http://www.w3.org/2000/svg"><path d="M84.45 315.448c80.348 46.389 184.611 18.452 231-61.896 46.389-80.348 18.305-184.696-62.043-231.085C173.059-23.922 68.943 4.1 22.554 84.448c-46.39 80.348-18.452 184.611 61.896 231zM74.025 209.349c-5.582-3.223-7.552-9.648-3.99-15.817 1.272-2.204 3.301-4.362 5.856-6.412l121.061-96.383c6.947-5.587 13.389-6.568 19.117-3.26 5.729 3.307 8.1 9.377 6.736 18.186l-22.94 153.033c-.498 3.238-1.353 6.074-2.625 8.278-3.561 6.169-9.964 7.761-15.693 4.453-2.938-1.696-5.553-4.969-6.648-9.518l-17.383-64.874c-.558-2.086-1.247-3.267-2.422-3.945-1.176-.679-2.69-.77-4.628-.126l-64.875 17.383c-4.634 1.242-8.629.698-11.566-.998z" fill="url(#a)"/><defs><linearGradient id="a" x1="-33.922" y1="371.924" x2="231.017" y2="-111.198" gradientUnits="userSpaceOnUse"><stop stop-color="#FF0054"/><stop offset="1" stop-color="#FF8E00"/></linearGradient></defs></svg>