<svg width="50" height="50" viewBox="0 0 50 50" fill="none" xmlns="http://www.w3.org/2000/svg">
<path d="M0 13.3333C0 5.96954 5.96954 0 13.3333 0H36.6667C44.0305 0 50 5.96954 50 13.3333V36.6667C50 44.0305 44.0305 50 36.6667 50H13.3333C5.96954 50 0 44.0305 0 36.6667V13.3333Z" fill="white"/>
<path fill-rule="evenodd" clip-rule="evenodd" d="M5.83203 29.9822V31.3795C5.96639 31.6706 5.80068 34.4608 7.94145 36.7762C9.56718 38.5318 12.9261 39.2394 15.2863 38.6303C15.8103 38.496 16.3612 38.281 16.8046 38.0347C17.2659 37.7794 17.7406 37.4704 18.0944 37.1703C19.8411 35.6879 20.8443 34.3085 21.8161 32.2931C23.6031 28.5893 24.454 22.0282 21.5922 18.6916C21.0413 18.0512 20.0471 17.366 18.8603 17.1241C17.4898 16.842 16.3612 16.9719 15.3938 17.6392C13.4053 19.0051 13.3919 22.0685 15.9044 22.8657C16.7643 23.1389 17.7899 23.018 18.5378 22.5343C18.6587 22.4581 18.7528 22.391 18.8558 22.3148C18.9543 22.2432 19.0842 22.1446 19.1379 22.0416C18.6677 22.279 18.296 22.6507 17.4271 22.5432C16.7867 22.4626 16.3164 22.1133 16.0119 21.746C15.1475 20.7204 15.5998 18.3513 17.772 17.6705C19.6664 17.0749 21.1354 18.2438 22.049 19.7755C24.4182 23.748 22.7253 30.5868 20.6293 33.8651C20.3382 34.3174 20.0247 34.7832 19.7022 35.1549C19.6171 35.2535 19.55 35.3341 19.4559 35.4461C18.5199 36.5702 17.5122 37.6092 15.9447 38.0839C14.7176 38.4512 13.262 38.4467 12.1021 38.0212C10.9063 37.5823 10.1225 36.9419 9.49552 36.1582C8.17881 34.5056 7.6593 31.581 7.98176 28.9745C8.32661 26.1664 9.85828 22.5835 11.5601 20.3263C11.8289 19.968 12.3081 19.444 12.6171 19.1664C12.7156 19.0768 12.7873 18.9917 12.8948 18.9066C12.9978 18.826 13.1142 18.7275 13.2083 18.6513C13.6158 18.3154 14.0413 18.0422 14.525 17.7511C16.5583 16.5195 19.0797 15.9911 21.4937 17.1465C22.5237 17.6392 23.2851 18.3692 23.8225 19.2515C25.1527 21.4101 24.8078 24.2988 24.2435 26.7397C23.9703 27.931 23.5717 29.0417 23.2224 30.1837C22.8776 31.3213 22.5327 32.4409 22.2013 33.5964C21.946 34.4966 21.3593 36.3462 21.5161 37.3047C21.7355 38.6438 22.5103 39.3559 24.042 39.1006C25.2243 38.9035 26.0797 38.272 26.7829 37.3718C28.1802 35.5804 29.0535 33.8472 30.0836 31.7736C30.5762 30.7749 31.0465 29.7448 31.472 28.7282C31.6601 28.2803 32.5827 26.0007 32.717 25.5215C32.6901 25.8753 32.5647 26.3859 32.502 26.7665C32.4304 27.1965 32.3677 27.604 32.3005 28.0474C31.9153 30.7122 31.6108 33.6949 32.0318 36.3597C32.2871 37.9809 32.8693 39.5619 33.6172 40.7174C34.2442 41.6892 35.3504 42.6835 36.5059 43.0328C36.703 43.091 36.9672 43.1 37.1374 43.1806H37.8987C37.9973 43.1313 38.4496 43.0597 38.6288 43.0014C39.1841 42.8133 40.0933 42.2983 40.3485 41.9131C39.4439 42.1236 38.8079 42.258 37.845 41.9624C36.8284 41.6489 35.9953 40.8069 35.4803 39.9246C35.2832 39.5843 35.1444 39.3156 35.0011 38.9304C34.1412 36.6597 34.3293 33.3053 34.5756 30.9227C34.925 27.5324 35.552 24.2227 36.3536 20.9489C37.312 17.0346 38.8661 14.1593 40.9935 10.8765C41.195 10.5675 41.392 10.2764 41.5891 9.99422L42.1982 9.12537C42.1489 9.05372 42.1758 9.08954 42.1131 9.0358L41.7906 8.75365C41.6428 8.62377 41.4727 8.49837 41.3876 8.38193C41.0248 8.48941 39.4976 10.03 37.1911 9.94943C36.2865 9.91808 35.6998 9.59115 34.9877 9.28212C33.7292 8.74021 31.5526 8.33266 30.1642 8.58346C29.067 8.785 28.1489 9.46575 27.5801 10.2943C26.8904 11.293 26.6172 12.2962 26.6664 13.5861C26.7291 13.5502 27.0337 13.0934 27.1009 13.0038C27.2576 12.7978 27.3964 12.6545 27.5756 12.4709C28.8968 11.1183 30.2627 10.9929 32.2423 11.2303C33.4381 11.3736 34.4278 11.817 35.6326 11.8931C36.5596 11.9514 37.4554 11.808 38.3242 11.5572C38.5795 11.4856 38.8616 11.3647 39.0945 11.3109C39.0139 11.4722 38.8751 11.6423 38.7631 11.7946C38.6467 11.9514 38.5571 12.1081 38.4407 12.2783C37.106 14.2175 35.3415 17.4063 34.4189 19.5023C33.7695 20.9847 33.2768 22.6238 32.7215 24.2182C32.0228 26.2246 30.097 31.2989 28.9774 33.3366C28.5788 34.0622 28.2116 34.6847 27.7771 35.361C27.3024 36.0999 26.3037 37.4838 25.5737 37.963C25.2736 38.1601 24.9064 38.4691 24.4137 38.3392C23.9569 38.2183 23.8315 37.8645 23.7867 37.345C23.7016 36.297 24.0151 35.6431 24.257 34.6668C24.3644 34.2324 24.4674 33.8203 24.5973 33.3949C24.8392 32.6021 25.1795 31.8497 25.4483 31.0526C26.7963 27.0173 28.5519 18.9514 23.3478 16.6987C20.9831 15.6776 17.6555 15.888 15.2595 16.9987C14.3682 17.4108 14.8385 17.1376 13.9025 17.2003C13.4367 17.2316 12.9933 17.3436 12.6037 17.5048C11.8333 17.8228 11.1481 18.3737 10.7003 18.826C10.1091 19.4261 9.03422 20.81 8.60428 21.5355C8.40722 21.867 8.20568 22.1939 8.00863 22.5522C7.07708 24.2675 6.27093 26.5784 5.9843 28.549C5.94847 28.7998 5.87234 29.8792 5.83203 29.9822Z" fill="black"/>
</svg>
