<svg width="50" height="51" fill="none" xmlns="http://www.w3.org/2000/svg"><path d="M47.227 29.28H36.45c-1.28 0-2.099-.588-2.355-1.74l-3.2-14.642-5.99 36.17c-.358 2.2-3.71 2.175-4.146.025L15.025 22.01l-1.05 5.298c-.255 1.331-1.049 1.971-2.38 1.971H2.15C.947 29.28 0 28.36 0 27.181c0-1.228.921-2.15 2.15-2.15h8.293l2.688-12.03c.486-2.074 3.61-2.074 4.096.076l5.605 25.111 6.016-36.553c.333-2.15 3.456-2.201 3.942-.025l5.068 23.421h9.369a2.13 2.13 0 0 1 2.15 2.15c0 1.178-.947 2.1-2.15 2.1z" fill="url(#a)"/><defs><linearGradient id="a" x1="62.544" y1="54.515" x2="3.706" y2="-21.872" gradientUnits="userSpaceOnUse"><stop stop-color="#FFC800"/><stop offset="1" stop-color="#00DB59"/></linearGradient></defs></svg>