<svg width="34" height="34" fill="none" xmlns="http://www.w3.org/2000/svg"><path fill-rule="evenodd" clip-rule="evenodd" d="M2.833 17c0 7.824 6.343 14.167 14.167 14.167S31.167 24.824 31.167 17 24.824 2.833 17 2.833 2.833 9.176 2.833 17zM17 0C7.611 0 0 7.611 0 17s7.611 17 17 17 17-7.611 17-17S26.389 0 17 0z" fill="url(#a)"/><path d="M5.331 18.974h5.42c.643 0 1.055-.296 1.183-.875l1.61-7.363 3.011 18.188c.18 1.107 1.867 1.094 2.085.012l2.883-13.617.528 2.664c.129.67.528.991 1.197.991h4.75c.605 0 1.081-.463 1.081-1.055 0-.618-.463-1.082-1.081-1.082h-4.17l-1.352-6.05c-.245-1.042-1.815-1.042-2.06.04l-2.818 12.626-3.025-18.38c-.167-1.081-1.738-1.107-1.982-.013l-2.549 11.777h-4.71c-.606 0-1.082.477-1.082 1.082 0 .592.476 1.055 1.081 1.055z" fill="url(#b)"/><defs><linearGradient id="a" x1="-9.067" y1="36.55" x2="30.101" y2="-15.674" gradientUnits="userSpaceOnUse"><stop stop-color="#FFC800"/><stop offset="1" stop-color="#00DB59"/></linearGradient><linearGradient id="b" x1="-2.371" y1="31.663" x2="27.215" y2="-6.747" gradientUnits="userSpaceOnUse"><stop stop-color="#FFC800"/><stop offset="1" stop-color="#00DB59"/></linearGradient></defs></svg>