<svg width="47" height="47" fill="none" xmlns="http://www.w3.org/2000/svg"><path d="M23.49 46.955A23.398 23.398 0 0 1 0 23.478C0 10.474 10.37 0 23.49 0h.214c1.458 0 2.462.93 2.462 2.29v8.423c0 1.431-1.028 2.481-2.39 2.481s-2.366-1.05-2.366-2.481V5.846C12.57 6.872 5.806 14.363 5.806 23.478c0 9.782 7.767 17.751 17.683 17.751 9.893 0 17.66-7.969 17.66-17.751 0-3.961-1.339-7.683-3.537-10.666-1.1-1.598-1.362-3.101-.072-4.27 1.29-1.17 3.298-1.002 4.564.74a23.115 23.115 0 0 1 4.851 14.196c0 13.027-10.419 23.477-23.466 23.477zm-.12-19.54a3.842 3.842 0 0 1-3.847-3.842c0-1.408.693-2.529 1.983-3.364l10.18-6.705c1.386-.906 2.652.43 1.768 1.79l-6.715 10.188c-.788 1.24-1.935 1.932-3.37 1.932z" fill="url(#a)"/><defs><linearGradient id="a" x1="59.477" y1="50.477" x2="5.384" y2="-21.646" gradientUnits="userSpaceOnUse"><stop stop-color="#FFC800"/><stop offset="1" stop-color="#00DB59"/></linearGradient></defs></svg>