<svg width="50" height="50" fill="none" xmlns="http://www.w3.org/2000/svg"><path d="M25.013 50A24.915 24.915 0 0 1 0 25C0 11.153 11.043 0 25.013 0h.229c1.552 0 2.62.99 2.62 2.439v8.968c0 1.525-1.094 2.643-2.544 2.643S22.8 12.932 22.8 11.407V6.226C13.384 7.317 6.183 15.295 6.183 25c0 10.417 8.27 18.902 18.83 18.902 10.534 0 18.804-8.485 18.804-18.902 0-4.218-1.425-8.18-3.766-11.357-1.17-1.702-1.45-3.303-.076-4.547 1.374-1.245 3.511-1.068 4.86.787A24.614 24.614 0 0 1 50 25c0 13.872-11.094 25-24.987 25zm-.128-20.808a4.091 4.091 0 0 1-4.096-4.09c0-1.5.738-2.694 2.112-3.583l10.84-7.139c1.475-.965 2.824.457 1.882 1.906l-7.15 10.848c-.84 1.321-2.06 2.058-3.587 2.058z" fill="#24FFFE"/></svg>