<svg width="30" height="31" fill="none" xmlns="http://www.w3.org/2000/svg"><path d="M15 .004a15 15 0 1 0 0 30 15 15 0 0 0 0-30z" fill="#29B6F6"/><path d="M22.462 8.254 19.653 22.6s-.12.655-.934.655c-.432 0-.655-.205-.655-.205l-6.085-5.05-2.977-1.5-3.822-1.017s-.68-.196-.68-.759c0-.469.7-.692.7-.692L21.187 7.68c-.001 0 .488-.176.844-.176.22 0 .469.094.469.375 0 .188-.038.375-.038.375z" fill="#fff"/><path d="m14.249 19.883-2.57 2.53s-.112.087-.26.09a.37.37 0 0 1-.165-.032l.723-4.473 2.272 1.885z" fill="#B0BEC5"/><path d="M19.423 10.651a.375.375 0 0 0-.526-.07L9 16.504s1.58 4.42 1.82 5.184c.242.766.435.784.435.784l.723-4.474 7.374-6.822a.374.374 0 0 0 .07-.525z" fill="#CFD8DC"/></svg>