<svg width="24" height="24" fill="none" xmlns="http://www.w3.org/2000/svg"><path d="M.567 8.348A11.988 11.988 0 0 0 0 12c0 1.273.2 2.5.567 3.652L12 16.174l11.433-.522C23.801 14.5 24 13.273 24 12c0-1.274-.2-2.5-.567-3.652L12 7.826.567 8.348z" fill="#F0F0F0"/><path d="M23.433 8.348 12 7.826.566 8.348c-.108.341-.202.69-.28 1.043h23.428a11.935 11.935 0 0 0-.28-1.043zM.285 14.609c.079.354.172.702.281 1.043h.002L12 16.174l11.433-.522c.109-.341.203-.69.281-1.043H.285z" fill="#D80027"/><path d="M12 24c5.354 0 9.888-3.507 11.433-8.348H.566C2.112 20.493 6.646 24 12 24z" fill="#6DA544"/><path d="M12 0C6.646 0 2.112 3.507.566 8.348h22.867C21.888 3.507 17.353 0 12 0z" fill="#338AF3"/><path d="M5.483 4.957c0-1.124.79-2.063 1.844-2.293a2.348 2.348 0 1 0 0 4.586 2.348 2.348 0 0 1-1.844-2.293zM8.716 6.024l.16.489h.514l-.417.302.16.49-.417-.303-.416.302.16-.489-.417-.302h.514l.16-.49zM10.357 6.024l.159.489h.514l-.416.302.159.49-.416-.303-.416.302.159-.489-.416-.302h.514l.159-.49zM11.998 6.024l.158.489h.515l-.416.302.159.49-.416-.303-.417.302.16-.489-.417-.302h.515l.159-.49zM13.64 6.024l.16.489h.513l-.416.302.16.49-.417-.303-.416.302.159-.489-.416-.302h.514l.16-.49zM15.28 6.024l.16.489h.514l-.416.302.159.49-.416-.303-.417.302.16-.489-.417-.302h.515l.159-.49zM10.357 4.316l.159.49h.514l-.416.302.159.489-.416-.303-.416.303.159-.49-.416-.302h.514l.159-.489zM11.998 4.316l.158.49h.515l-.416.302.159.489-.416-.303-.417.303.16-.49-.417-.302h.515l.159-.489zM13.64 4.316l.16.49h.513l-.416.302.16.489-.417-.303-.416.303.159-.49-.416-.302h.514l.16-.489zM15.28 4.316l.16.49h.514l-.416.302.159.489-.416-.303-.417.303.16-.49-.417-.302h.515l.159-.489zM11.998 2.609l.158.49h.515l-.416.301.159.49-.416-.303-.417.303.16-.49-.417-.302h.515l.159-.49zM13.64 2.609l.16.49h.513l-.416.301.16.49-.417-.303-.416.303.159-.49-.416-.302h.514l.16-.49zM15.28 2.609l.16.49h.514l-.416.301.159.49-.416-.303-.417.303.16-.49-.417-.302h.515l.159-.49z" fill="#F0F0F0"/></svg>